<svg width="412" height="917" viewBox="0 0 412 917" fill="none" xmlns="http://www.w3.org/2000/svg">
<g clip-path="url(#clip0_1890_141292)">
<rect width="412" height="917" fill="#251516"/>
<g filter="url(#filter0_f_1890_141292)">
<path d="M35.614 778.787C41.5849 786.69 47.248 794.216 52.8465 801.791C54.014 803.37 54.9422 805.127 55.9968 807.129C56.116 807.879 56.3027 808.259 56.8195 808.812C57.0533 809.033 56.9834 808.959 57.0207 808.924C61.0979 816.933 65.4308 824.875 65.6038 834.232C65.6161 834.9 65.5395 835.525 65.1747 836.529C62.8526 836.603 61.0448 835.741 59.8093 834.072C52.0157 823.541 44.2705 812.975 36.2743 802.177C32.438 801.318 32.0568 798.366 31.5323 795.122C32.657 791.253 31.2683 787.988 31.0557 784.656C30.911 782.39 30.232 780.014 32.9637 778.148C34.0914 777.937 34.7108 778.083 35.614 778.787Z" fill="#2F1D24"/>
<path d="M15.1079 706.579C25.5852 705.861 28.282 703.89 29.2912 695.46C30.6146 693.175 32.3199 691.937 34.6264 691.783C41.5794 691.317 48.5377 691.372 55.4917 691.761C56.6368 691.825 57.7871 692.119 58.8883 693.499C59.9673 694.203 60.7568 694.475 61.478 694.872C62.4503 695.406 63.9153 695.631 63.9261 697.011C63.9373 698.453 62.5038 698.626 61.4456 699.034C60.8285 699.272 60.2051 699.497 59.6 699.762C52.1371 703.038 51.9923 703.379 54.8236 711.642C55.8183 712.999 57.1704 713.607 57.6587 714.846C58.2099 716.244 58.7155 713.585 57.6587 714.846C56.6119 716.094 55.0251 720.389 53.3394 719.876C50.5312 719.02 48.0717 717.267 44.7298 716.826C41.1749 714.054 36.9458 713.47 33.081 711.357C31.2649 711.33 30.0307 710.278 28.1909 710.501C25.0771 711.116 22.9575 713.178 20.1995 713.789C18.6382 714.135 17.0972 715.143 15.4104 713.273C15.1309 711.003 15.103 709.004 15.1079 706.579Z" fill="#80181A"/>
<path d="M65.2124 836.657C63.2062 827.567 58.5715 819.087 57.0605 809.297C61.2067 813.074 64.679 817.731 67.0134 823.544C66.4181 828.064 68.2632 832.52 65.2124 836.657Z" fill="#240D12"/>
<path d="M15.442 800.653C16.4548 813.757 10.7576 825.094 7.49312 836.915C4.8729 846.403 1.85548 855.782 -0.992761 865.605C-0.999811 866 -1.49981 866 -1.74981 866C-3.6323 859.805 -4.43325 853.475 -4.44703 847.098C-4.53729 805.32 -4.50356 763.542 -4.47721 721.763C-4.47584 719.602 -4.50999 717.431 -3.7478 714.861C-3.38932 714.117 -3.30306 713.703 -3.05569 713.553C2.12684 710.402 8.28217 708.918 12.6297 704.281C13.1118 703.766 14.5371 704.113 15.6745 705.169C17.2536 707.477 16.9508 709.752 17.4322 712.343C18.1227 714.955 17.521 717.169 17.7333 719.795C17.1078 724.953 17.4416 729.637 17.9039 734.806C16.2736 741.255 17.7899 747.191 17.9638 753.633C16.2747 759.871 17.8215 765.61 17.8896 771.852C16.7229 774.181 16.9974 776.18 17.1876 778.138C17.7605 784.034 17.4759 789.938 17.3702 795.838C17.3413 797.453 17.2506 799.155 15.442 800.653Z" fill="#971B25"/>
<path d="M165.548 672.961C167.721 673.076 169.441 673.135 171.58 673.097C172 673.75 172 674.5 172 675.625C163.301 677.083 155.181 680.378 146.784 682.613C140.419 684.308 133.922 685.523 127.741 687.9C126.52 688.37 125.036 688.315 124.965 690.505C124.724 691.967 124.009 692.71 122.938 692.693C114.493 692.557 106.965 696.333 99.0401 698.361C95.9465 699.153 92.5817 698.84 89.4157 700.783C81.3026 702.886 81.3384 702.853 87.0441 709.15C88.7105 710.989 91.3913 712.71 88.6312 715.997C82.9085 716.717 77.789 715.309 72.6619 713.878C68.5405 712.728 64.4561 711.06 60.2155 713.814C59.0027 714.602 57.3193 714.048 55.5162 713.587C49.5902 710.73 48.9496 703.108 54.1328 699.767C56.3394 698.344 58.3174 697.108 57.5462 693.663C57.6741 691.357 58.9989 690.356 60.8798 689.375C65.7882 690.633 70.1086 689.4 74.3755 688.24C81.2272 686.377 87.8162 683.556 94.926 682.631C96.1877 682.466 96.8771 681.465 98.0714 680.465C110.481 678.336 121.925 673.82 134.452 671.969C138.04 673.282 141.132 673.26 144.555 672.858C151.352 672.061 158.246 672.424 165.548 672.961Z" fill="#821E2B"/>
<path d="M-15.3598 557.274C-10.4161 546.28 -7.39576 534.979 -4.03049 523.391C-2.93358 523 -1.8669 523 -0.400244 523C2.25887 531.813 5.54313 540.273 8.848 548.727C9.56947 550.572 10.204 552.452 10.9498 554.683C13.5391 556.534 12.3623 558.488 11.5749 560.261C8.57739 567.01 3.95568 572.657 -1.19382 578.287C-1.85869 578.39 -2.12758 578.41 -2.80094 578.417C-6.43149 577.776 -7.3565 574.807 -8.96041 572.602C-11.3013 569.385 -13.411 565.998 -15.3011 562.49C-16.15 560.914 -17.3069 559.292 -15.3598 557.274Z" fill="#3E1116"/>
<path d="M102.084 775.76C104.748 781.545 109.522 785.401 112.881 790.343C113.604 791.407 114.83 792.08 115.17 793.483C115.344 794.201 116.349 794.872 115.464 795.586C115.04 795.927 114.143 796.026 113.608 795.831C106.944 793.394 100.307 790.883 93.3139 788.312C92.0072 788.383 91.0838 788.983 90.077 788.475C82.6799 784.748 74.3813 783.369 66.6166 779.539C60.365 773.465 55.5506 766.67 51.28 759.475C50.844 758.74 51.1219 757.871 51.5728 756.701C52.7995 753.791 51.1713 751.616 50.8314 749.276C50.5218 747.145 50.5233 745.021 51.5198 742.601C54.1413 740.654 56.6772 740.572 59.3378 741.309C64.487 742.736 69.7484 743.802 75.0227 746.093C77.552 745.608 78.8815 746.953 80.135 748.272C87.6823 756.21 94.0861 765.143 101.662 773.059C102.266 773.69 102.38 774.53 102.084 775.76Z" fill="#995F68"/>
<path d="M52.7574 756.685C56.2982 764.583 62.5281 770.151 66.7282 777.494C67.9524 778.814 69.2358 779.997 69.1728 781.43C68.8479 788.818 72.0566 796.035 70.2798 803.913C71.9471 810.799 69.8938 817.538 71.9382 823.964C72.1788 824.719 72.0297 825.763 71.1466 826.126C69.2609 826.901 68.8158 824.807 67.3186 824.043C63.4623 823.052 62.8552 819.692 61.2225 817.171C59.9291 815.174 59.3705 812.521 56.2996 811.577C55.71 811.344 55.4917 811.208 55.0244 810.778C54.4761 810.071 54.2201 809.632 53.8496 808.827C49.949 800.968 44.1972 794.878 39.2915 788.187C37.1033 785.202 34.2026 782.518 34.774 777.889C34.6655 769.152 33.7365 760.797 35.5209 752.096C37.5281 749.567 39.6474 749.889 41.9981 750.56C44.8749 751.382 47.1164 753.499 50.4399 754.338C51.7781 754.747 52.3737 755.348 52.7574 756.685Z" fill="#A72D3E"/>
<path d="M87.6687 715.258C86.3041 710.468 82.087 708.062 79.1899 704.54C78.3024 703.461 76.4901 702.651 77.2647 700.917C77.876 699.548 79.5638 699.892 80.8147 699.718C82.9284 699.426 85.0646 699.294 87.6223 699.094C88.8654 699.708 89.8829 699.725 91.0863 700.274C93.3542 703.03 96.0277 704.728 98.8031 706.091C106.528 709.884 113.04 715.428 119.962 720.376C121.582 721.534 123.015 723.039 122.035 725.743C120.472 727.629 118.558 727.411 116.785 727.432C109.548 727.519 102.309 727.582 95.5863 727.4C98.5035 729.196 103.666 727.536 105.729 732.815C107.691 737.909 110.706 741.974 113.585 746.13C114.988 748.153 116.296 750.254 117.477 752.412C117.969 753.311 119.217 754.421 118.084 755.43C117.493 755.956 116.16 755.966 115.257 755.771C111.408 754.937 107.595 753.939 103.379 752.933C100.192 751.49 97.1212 754.223 94.0051 752.11C88.0624 742.837 80.0452 735.666 73.9364 726.984C72.3362 724.71 70.1672 722.741 70.6174 719.165C73.7191 715.16 78.0055 716.062 81.9197 715.713C83.7063 715.554 85.5408 716.364 87.6687 715.258Z" fill="#AD323D"/>
<path d="M70.5802 804.136C66.8183 796.138 67.134 787.405 66.9082 778.26C75.7154 780.479 84.9352 782.17 92.8124 787.981C95.8107 798.116 98.6579 807.999 101.503 817.883C101.85 819.086 103.036 820.448 101.569 821.47C100.281 822.367 99.0667 821.343 97.961 820.576C90.5998 815.472 83.2686 810.322 75.837 805.322C74.409 804.361 73.111 802.001 70.5802 804.136Z" fill="#4C141A"/>
<path d="M94.7818 749.78C97.5628 750.829 99.9824 751.667 102.696 752.684C101.639 753.168 99.5486 752.876 101.562 755.32C110.145 765.739 118.648 776.223 127.187 786.678C127.5 787.062 127.895 787.377 128.231 787.744C129.547 789.184 131.629 791.092 130.278 792.693C128.556 794.734 126.881 792.112 125.37 791.135C117.78 786.23 110.233 781.258 102.343 776.22C94.6952 770.089 89.2798 762.307 82.9958 755.319C80.8993 752.987 78.7403 750.712 76.3691 748.188C72.6569 744.784 67.433 742.946 67.891 736.568C70.2372 734.164 72.4319 734.94 74.5328 736.142C81.4936 740.122 88.4717 744.087 94.7818 749.78Z" fill="#861A24"/>
<path d="M33.8014 794.753C34.6394 797.106 35.2115 799.189 35.9113 801.603C36.0391 807.974 36.0391 814.014 36.0391 821.427C27.5106 814.876 22.7571 806.812 15.3618 801.035C15.0305 791.608 15.0264 782.269 15.0325 772.46C16.8454 770.238 18.2962 770.975 19.5517 772.674C24.6951 779.634 30.5695 786.127 33.8014 794.753Z" fill="#9A2B39"/>
<path d="M90.2127 701.25C89.3545 700.498 88.8444 700.018 88.1938 699.315C97.3672 696.254 106.687 693.435 115.991 690.562C118.797 689.695 121.501 689.845 124.58 690.921C130.437 691.86 135.725 693.343 141.63 696.393C132.453 701.263 123.287 703.882 114.402 708.02C112.3 710.163 110.245 710.141 107.821 709.461C101.63 707.724 96.1175 704.592 90.2127 701.25Z" fill="#BB5D58"/>
<path d="M90.002 701.295C97.6721 703.37 105.479 705.762 113.69 708.189C116.422 711.766 120.323 713.359 123.569 715.731C129.553 720.102 135.732 724.206 142.014 728.716C139.631 731.82 136.352 730.339 133.618 729.911C129.299 729.236 124.322 730.005 120.985 725.395C116.42 719.662 110.172 716.699 104.811 712.578C99.9706 708.857 94.3921 706.121 90.002 701.295Z" fill="#6B1922"/>
<path d="M120.459 724.975C127.736 726.21 134.281 728.842 141.756 729.054C144.608 733.412 140.433 731.828 139.23 731.855C130.484 732.055 121.731 731.958 112.981 731.986C110.847 731.992 108.674 731.761 106.272 732.899C99.5292 730.548 92.5254 729.75 86.3135 726.716C86.3626 726.158 86.4117 725.6 86.4608 725.041C97.6407 725.041 108.821 725.041 120.459 724.975Z" fill="#260E12"/>
<path d="M133.978 674.733C124.179 675.993 115.278 679.291 106.095 681.408C103.999 681.891 101.897 682.343 99.405 682.829C90.2072 682.258 82.3929 678.874 74.8227 673.959C73.4574 671.197 74.7635 669.551 76.2572 667.88C79.0764 664.725 82.3146 662.042 85.7984 659.035C86.351 658.256 86.7641 657.924 87.6719 657.61C95.0468 654.902 102.13 652.661 109.886 651.473C117.436 652.303 124.267 654.52 131.258 655.966C133.126 656.352 135.249 656.394 136.828 658.536C143.286 660.605 149.512 662.266 155.69 664.087C157.126 664.51 159.133 664.666 159.402 666.607C159.55 667.683 158.164 667.942 157.104 668.604C151.383 673.105 144.518 672.43 138.229 673.887C136.956 674.183 135.581 673.994 133.978 674.733Z" fill="#985963"/>
<path d="M110.465 653.598C103.207 655.554 96.2078 657.27 88.8301 659.012C86.3024 658.125 84.1766 657.777 81.7385 657.716C78.1224 657.625 74.1808 657.531 70.8512 654.608C69.8076 648.277 74.1089 644.558 76.9784 640.34C77.8048 639.125 78.9379 638.113 79.4428 636.207C81.1489 633.589 83.7637 633.283 86.068 632.463C96.0914 628.897 106.186 625.532 116.536 621.715C120.546 622.546 123.085 619.75 126.231 618.999C129.129 618.307 131.862 616.944 134.849 616.586C136.853 616.346 139.02 615.864 140.37 618.573C136.766 624.538 132.064 629.18 127.679 634.512C127.518 635.494 127.687 636.237 127.225 636.752C122.003 642.564 117.963 649.554 110.465 653.598Z" fill="#99454F"/>
<path d="M-2.42607 577.128C2.04327 569.666 8.27124 563.832 10.9472 555.401C15.8376 551.138 17.9 545.193 21.6895 540.511C22.6325 539.347 23.1147 537.677 24.9417 538.213C26.6986 538.728 25.9442 540.448 25.9605 541.626C26.0498 548.09 26.0189 554.556 26.0747 561.484C27.5799 562.752 28.1682 564.047 28.049 565.641C27.2884 575.807 27.2509 586.023 25.7619 596.547C20.6205 600.61 18.3945 606.493 13.9948 611.072C10.9644 612.071 9.64261 610.386 8.46576 608.448C6.25642 604.808 3.74267 601.327 2.0915 597.391C1.42555 595.804 0.415816 594.936 -1.34044 594.072C-2.27014 593.256 -2.97862 592.78 -3.33382 591.495C-3.23418 586.535 -4.26055 581.945 -2.42607 577.128Z" fill="#9D5158"/>
<path d="M117.085 623.903C105.078 628.366 93.3378 632.547 81.2699 636.903C74.2906 642.788 65.8853 644.152 57.4132 646.366C55.0938 645.712 52.8377 646.52 50.932 644.51C49.1536 640.617 49.0922 637.105 51.1271 633.292C55.1817 631.723 57.054 627.846 61.0275 626.3C61.9413 626.189 62.4574 626.109 63.3447 625.919C74.0453 621.771 84.9059 619.169 95.2983 614.196C96.127 613.859 96.6253 613.824 97.8202 614.248C103.126 614.961 107.224 612.909 111.461 611.661C119.397 609.324 127.245 606.686 135.508 604.171C139.04 606.539 137.146 608.457 135.198 610.121C129.518 614.97 123.864 619.867 117.085 623.903Z" fill="#4B141A"/>
<path d="M110.597 653.892C114.699 646.577 120.234 640.235 127.225 634.862C138.697 634.898 149.834 634.927 160.97 635.037C162.536 635.053 164.693 634.355 165.425 636.274C166.231 638.385 163.919 638.939 162.688 639.852C154.314 646.063 145.892 652.208 137.282 658.63C128.033 659.077 119.733 655.333 110.597 653.892Z" fill="#5D151E"/>
<path d="M22.7744 597.382C24.6247 590.124 24.3628 583.114 24.8504 576.182C25.165 571.71 25.1204 567.216 26.0727 562.372C30.327 553.216 31.7685 543.514 35.6902 534.684C36.1758 533.59 35.8221 531.589 37.7839 531.912C39.6725 532.223 38.9121 534.041 38.971 535.227C39.6955 549.829 37.712 564.368 37.8235 579.415C35.2475 590.416 31.455 600.536 27.644 610.654C26.5577 613.538 25.2816 615.537 21.5849 613.188C19.9907 607.675 20.2055 602.654 22.7744 597.382Z" fill="#A02435"/>
<path d="M97.2234 615.801C90.0427 620.438 81.955 621.95 74.3736 624.756C71.2747 625.903 68.0665 626.755 64.5474 627.772C63.806 627.484 63.225 627.082 63.3553 626.651C65.6785 618.961 69.537 612.172 75.4069 606.617C75.8844 606.165 76.6664 606.371 77.6951 606.743C86.316 604.977 94.5455 603.004 102.799 601.139C103.796 600.914 105.222 600.427 105.83 601.888C106.248 602.894 105.699 603.736 104.971 604.549C102.451 607.363 100.459 610.547 98.611 614.232C98.5073 614.574 98.6452 614.871 98.7938 614.802C98.6417 615.354 98.0542 615.489 97.2234 615.801Z" fill="#C3545A"/>
<path d="M37.6481 581.171C41.4179 576.688 44.7579 572.431 48.2284 568.283C48.9713 567.395 49.0177 565.347 50.9132 565.966C52.438 566.464 52.3863 568.272 52.5404 569.373C53.5461 576.558 54.2689 583.783 55.1542 591.429C56.7772 593.509 56.5384 595.093 55.0997 596.677C53.2846 598.676 51.6119 600.824 49.474 602.493C47.2593 604.223 45.9049 606.37 45.4431 609.573C44.0706 611.382 42.6355 611.767 40.4818 611.008C36.2352 601.278 34.5391 591.566 37.6481 581.171Z" fill="#7A1925"/>
<path d="M37.9771 580.642C37.8285 590.514 39.5221 599.92 41.0995 609.771C43.5179 612.384 41.8876 614.315 40.7726 616.291C39.5926 618.383 37.4085 619.933 37.1659 623.048C32.4143 626.201 28.1434 629.922 21.8059 627.562C20.4194 622.533 19.3394 617.868 22.9337 613.363C27.54 604.405 30.5857 595.178 33.8532 586.034C34.6132 583.907 34.8307 581.433 37.4314 580C37.8068 580.04 37.8648 580.21 37.9771 580.642Z" fill="#6F1517"/>
<path d="M78.0632 606.531C72.6599 613.092 68.0823 619.836 64.2787 627.484C63.6775 627.831 63.1683 627.86 62.2764 627.871C58.7596 626.238 59.8625 623.548 60.6197 621.373C63.8153 612.195 66.7047 602.894 70.9065 594.094C71.5798 592.684 72.3911 591.32 72.0093 589.247C76.3522 582.333 80.8234 575.922 88.5928 572.812C85.2682 584.113 81.6578 595.129 78.0632 606.531Z" fill="#821D2B"/>
<path d="M88.9522 572.839C86.2832 573.161 85.5551 575.441 84.2288 577.013C80.9663 580.879 77.7014 584.743 74.1974 588.846C72.3601 592.066 70.1355 594.398 67.2635 596.256C61.3061 600.11 55.4848 604.175 49.4928 607.976C47.9379 608.962 46.3395 610.721 43.897 608.768C45.0779 603.73 48.8521 600.588 51.7548 596.838C52.8557 595.415 53.9458 593.984 55.1327 592.21C65.7693 585.9 75.3415 578.458 85.5323 571.958C86.7315 571.193 88.564 568.533 88.9522 572.839Z" fill="#34111A"/>
<path d="M51.2962 755.79C46.6338 754.646 42.2797 753.287 37.5522 751.867C30.3636 753.29 20.0057 746.902 17.0879 739.587C16.5607 738.265 16.3239 736.821 15.2974 735.299C15.0694 730.281 15.0804 725.566 15.1367 720.381C16.3318 718.276 17.8176 718.41 19.4906 718.973C22.2475 719.902 25.0013 720.851 28.1777 721.696C36.4523 731.418 43.5409 741.646 51.1313 751.491C52.0368 752.665 52.4306 754.101 51.2962 755.79Z" fill="#491E1E"/>
<path d="M15.04 735.464C15.3795 735.08 15.8906 735.064 15.9937 735.261C20.4417 743.786 28.4577 747.692 36.9378 751.561C36.5488 760.64 37.7804 769.542 36.0824 778.744C35.5282 778.983 35.1115 778.82 34.3939 778.507C32.8334 778.031 31.3533 778.194 30.4652 776.991C25.1011 769.725 18.4298 763.315 15.4643 754.054C15.2218 747.797 15.1216 741.864 15.04 735.464Z" fill="#CD494D"/>
<path d="M15.2492 754.217C22.3679 761.077 27.6881 769.753 33.9622 778.076C31.901 783.617 35.1149 788.852 34.1167 794.565C28.9509 791.874 26.8993 786.204 23.2553 781.843C20.6446 778.719 18.91 774.89 15.3348 772.143C15.0873 766.229 15.132 760.467 15.2492 754.217Z" fill="#A82D3E"/>
<path d="M28.1055 722.682C23.1488 724.597 19.781 721.147 15.5211 720.014C15.1432 717.896 15.1042 715.881 15.1122 713.434C19.2169 711.366 23.2746 709.73 27.685 707.99C30.4189 709.188 30.2764 711.721 30.9186 714.289C30.573 716.624 30.2154 718.513 29.4429 720.732C29.2278 721.701 28.9388 722.166 28.1055 722.682Z" fill="#491E1E"/>
<path d="M29.2957 715.149C28.0978 712.919 28.1772 710.798 28.0647 708.296C29.7431 707.254 31.1331 708.157 32.8402 708.99C35.3921 713.434 39.5365 714.28 44.145 714.916C46.5589 714.875 48.2757 715.885 50.1003 716.61C51.7097 717.25 53.4578 719.026 55.0615 717.797C56.7366 716.513 54.9473 714.445 55.0269 712.341C55.8247 711.898 57.009 712.157 57.4142 711.71C62.2296 706.395 67.3545 709.924 72.351 711.113C77.328 712.297 82.2609 713.667 87.6162 714.973C86.3578 717.955 83.1968 717.171 80.6573 717.865C78.0061 718.59 75.2764 719.027 72.2581 719.802C70.5944 722.953 67.6513 722.791 65.165 723.483C63.2534 724.016 61.2099 723.978 59.0513 724.987C55.6242 726.821 53.6293 723.585 50.9952 723.61C54.3629 729.294 55.709 735.521 53.5341 742.491C52.0639 747.323 55.2218 751.878 53.1183 756.788C52.3681 756.868 51.8802 756.623 51.19 756.192C45.2213 746.233 36.9462 738.295 30.9976 728.658C29.9564 726.971 28.9896 725.238 27.8491 723.176C27.833 722.502 27.9564 722.18 28.1554 721.61C29.0033 719.461 31.7432 717.979 29.2957 715.149Z" fill="#6E1E1E"/>
<path d="M59.3433 693.625C49.5313 694.478 39.7801 693.137 29.7505 695.025C28.696 692.1 29.9417 689.975 32.1925 688.15C34.837 686.006 36.8914 683.441 37.046 679.422C38.0151 677.813 39.1636 676.819 40.7671 676.805C51.2414 676.715 61.7526 675.424 72.5757 677.876C74.4312 679.136 74.7281 680.659 73.6111 681.896C70.4601 685.382 67.8205 689.571 62.3537 690.854C61.1293 691.783 60.3038 692.578 59.3433 693.625Z" fill="#4B181B"/>
<path d="M62.3462 691.114C64.9724 686.895 69.2449 684.068 72.9037 680.136C73.198 677.833 69.7719 677.654 70.6955 674.765C71.6058 672.597 72.7885 671.52 75.233 672.391C83.0709 676.255 91.2858 678.151 98.754 682.629C89.8331 686.771 80.0876 688.919 70.5818 691.807C68.0746 692.568 65.2994 692.197 62.3462 691.114Z" fill="#D15352"/>
<path d="M53.69 742.792C52.9025 741.658 52.1548 740.571 52.1667 739.493C52.2492 731.976 50.8531 725.037 44.6846 719.536C49.5146 720.01 53.6199 721.329 57.7069 723.8C58.9821 723.862 60.1809 723.618 60.7887 724.443C63.6836 728.373 68.9269 730.585 69.3187 736.577C70.3399 741.086 74.4275 743.348 76.0359 747.628C68.7793 746.258 61.4302 744.551 53.69 742.792Z" fill="#CA494D"/>
<path d="M56.9651 808.721C56.8213 808.685 56.5892 808.336 56.1851 807.722C56.301 807.774 56.589 808.091 56.9651 808.721Z" fill="#240D12"/>
<path d="M69.5167 736.973C65.1771 733.132 61.5089 729.063 58.1406 724.3C61.6219 720.21 66.5904 720.865 71.5208 720.02C79.5692 729.799 87.2032 739.586 94.9902 749.681C87.908 747.946 82.0798 743.23 75.632 739.693C73.767 738.67 72.0563 737.347 69.5167 736.973Z" fill="#671618"/>
<path d="M71.7341 652.656C75.6394 655.08 79.8258 654.951 83.7641 655.859C85.4978 656.259 87.3891 656.267 88.3269 658.668C88.1647 659.271 87.8775 659.505 87.3305 659.839C79.9847 663.036 72.9167 666.191 64.6883 666.673C61.7113 664.856 58.7401 664.124 56.004 662.856C49.6782 659.925 48.8704 655.44 54.047 649.609C60.5012 648.377 66.1231 649.562 71.7341 652.656Z" fill="#6E1F1F"/>
<path d="M64.5376 665.194C72.1105 663.227 78.848 659.717 86.7584 659.76C83.3444 663.98 79.618 668.021 75.736 672.36C74.6038 673.427 73.6273 674.197 72.4131 675.171C70.8716 676.256 69.3984 676.892 68.1344 675.621C65.775 673.25 62.1516 672.003 61.4897 667.779C62.0304 666.166 62.863 665.477 64.5376 665.194Z" fill="#3C0B0D"/>
<path d="M72.1077 652.74C66.2418 654.09 60.9728 650.967 54.8787 651.254C51.4455 648.118 53.4511 646.183 56.5616 644.239C65.004 642.601 72.28 638.806 80.557 637.058C79.1281 642.806 74.6081 647 72.1077 652.74Z" fill="#CF5351"/>
<path d="M-2.54233 592.817C-2.49596 592.464 -2.46452 592.533 -2.43109 592.545C-1.80449 592.215 -1.2113 591.873 -0.32782 591.36C1.67793 594.51 2.39188 598.101 2.43143 601.777C2.5639 614.092 2.54991 626.407 2.4297 638.722C2.40761 640.985 2.72528 643.454 0.242722 645.51C-8.08258 649.71 -16.0918 653.374 -24.8987 654.876C-25.3353 654.95 -25.7024 655.433 -26.4013 655.907C-26.9429 656.038 -27.185 655.988 -27.7095 655.699C-29.645 652.08 -27.9818 649.744 -25.3123 648.071C-23.9193 647.198 -22.4787 646.527 -21.3801 644.775C-19.5158 642.566 -19.7648 640.303 -20.0073 637.632C-18.8025 633.785 -19.3861 630.319 -20.0115 626.907C-20.6613 623.363 -20.2673 619.957 -19.1982 616.595C-18.5331 614.504 -17.6624 612.508 -14.6124 612.113C-10.1238 605.821 -5.37041 600.105 -2.54233 592.817Z" fill="#4D191C"/>
<path d="M0.248668 645.873C-0.0977977 627.914 -0.0439041 610.001 -0.0137981 591.639C5.26493 596.507 7.78398 603.689 12.4907 609.794C17.1862 610.671 18.0228 614.111 18.345 617.691C18.8425 623.22 18.3286 628.758 18.2834 634.652C20.0004 636.847 19.1332 639.241 20.1245 641.585C21.1398 643.823 19.2476 645.151 19.2462 647.215C19.1153 648.738 18.5268 649.792 18.3102 651.286C18.073 651.803 17.9413 651.992 17.5786 652.436C14.1903 653.213 11.5335 652.341 9.36142 649.941C7.03944 647.375 4.06292 646.156 0.248668 645.873Z" fill="#961B25"/>
<path d="M17.4123 636.277C15.3444 631.781 16.1255 627.266 16.2233 622.863C16.3223 618.41 15.7437 614.338 12.8672 610.378C15.1824 605.196 18.1658 600.759 22.7459 597.145C23.1015 602.064 23.1731 607.166 23.3375 612.747C23.3849 617.48 23.3396 621.735 23.3547 626.444C24.7488 631.232 22.4252 635.195 17.4123 636.277Z" fill="#C8444A"/>
<path d="M43.4583 608.666C53.5276 602.102 63.4272 595.71 73.6422 589.201C73.5491 596.853 69.2679 603.394 67.0871 610.606C65.4236 616.107 62.6799 621.273 61.9246 627.463C59.4488 629.853 57.0035 631.853 54.2706 634.038C49.7263 634.049 50.7861 630.812 50.6999 628.357C50.6098 625.797 52.3976 623.267 50.5881 620.444C48.6621 618.663 47.5614 620.506 46.2262 620.907C42.9519 621.891 40.0647 625.009 36.0796 622.362C36.0996 617.619 39.4201 614.637 41.0292 610.521C41.8611 609.746 42.5748 609.293 43.4583 608.666Z" fill="#A62C3D"/>
<path d="M51.8094 616.394C55.5277 618.391 53.7342 621.798 53.7614 624.722C53.7886 627.646 52.4108 630.548 53.7728 633.87C51.261 636.781 52.1503 640.105 52.0982 643.663C52.8391 645.563 52.261 646.724 51.0391 647.436C47.555 649.465 44.2677 652.032 39.5534 651.869C36.2674 649.429 35.9976 647.123 38.7459 645.161C36.0842 647.712 31.8658 649.718 31.0892 654.989C27.63 657.785 27.0862 653.498 24.6735 652.786C23.9031 652.221 23.6304 651.762 23.4948 650.817C23.3074 649.035 23.8554 647.768 24.1222 646.053C25.0241 642.454 25.9555 639.337 28.055 636.616C29.3602 634.924 29.7792 632.738 29.5639 630.147C32.1383 625.664 34.1367 625.365 36.0697 629.218C37.5273 632.123 38.5999 631.265 39.8776 629.486C43.2816 624.747 47.0717 620.378 51.8094 616.394Z" fill="#6E1E1E"/>
<path d="M36.2396 650.481C42.2726 649.511 47.1536 647.049 52.3626 644.354C54.4446 644.05 56.2025 643.986 58.3222 644.002C56.7667 646.069 56.3491 648.551 55.6194 651.393C52.6339 660.1 52.7897 660.385 61.608 663.801C63.6359 664.587 65.6151 665.469 68 666.477C67.6337 667.28 66.8841 667.913 65.8083 668.74C64.6148 669.836 63.3733 670.306 62.2543 669.791C53.3202 665.675 43.6667 667.581 34.3021 667.073C31.1741 666.904 27.734 667.637 24.9799 664.637C24.8421 660.586 23.0851 657.726 19.6738 655.155C18.9782 654.443 18.8155 653.951 19.2122 653.064C22.1962 652.2 22.9043 654.906 25.3432 655.325C28.0553 652.077 30.6133 649.161 36.2396 650.481Z" fill="#80181A"/>
<path d="M97.2808 615.917C97.4267 615.466 97.8661 614.941 98.6239 614.576C98.4862 615.104 98.0302 615.474 97.2808 615.917Z" fill="black"/>
<path d="M51.69 616.226C48.7393 624.343 42.2999 630.293 36.8322 636.905C34.774 639.394 34.3014 636.896 34.0534 635.199C33.4003 630.73 33.409 630.729 32.1387 629.823C29.2096 633.924 27.2249 638.448 23.3291 641.527C21.9765 642.596 20.865 644.33 18.3612 643.172C17.6997 640.94 17.373 638.905 17.0283 636.487C19.3952 633.509 21.3705 630.625 23.2397 627.219C27.5606 625.821 31.5607 624.368 35.6458 622.166C41.0874 620.115 46.2155 618.218 51.69 616.226Z" fill="#7A1E25"/>
<path d="M29.1815 663.25C36.2822 662.875 43.3608 663.146 50.4171 662.862C54.9509 662.679 58.86 663.437 62.2949 667.021C65.3132 670.11 68.0715 673.003 71.8241 675.278C72.3248 676.852 74.2875 677.731 73.3393 679.698C70.0322 678.175 66.6427 678.934 63.3763 678.903C54.9178 678.821 46.4576 678.925 37.5372 678.998C36.7682 675.728 35.0362 673.177 32.4867 671.263C29.8715 669.3 28.7216 666.871 29.1815 663.25Z" fill="#951B25"/>
<path d="M24.9934 651.772C24.9888 652.567 24.9795 653.006 24.9575 653.774C22.7449 653.271 20.4979 652.67 17.7332 652.707C17.3473 652.693 17.3382 652.369 17.3169 652.208C18.8721 649.095 20.8033 647.034 24.6885 649.603C24.9671 650.467 24.9779 650.941 24.9934 651.772Z" fill="#491E1E"/>
<path d="M44.2792 714.596C36.7877 717.516 33.7304 716.198 33.0884 709.554C36.9355 710.49 40.6946 711.966 44.2792 714.596Z" fill="#80181A"/>
<path d="M29.0309 715.268C33.0003 717.079 32.851 719.173 28.5689 721.258C28.4769 719.465 28.7224 717.568 29.0309 715.268Z" fill="#491E1E"/>
<path d="M17.9213 643.236C22.484 638.746 26.9418 634.519 31.6961 630.147C30.8195 635.413 28.8289 640.524 26.1526 645.752C23.5007 648.048 20.8981 649.294 17.3618 647.333C16.4107 645.633 17.3829 644.629 17.9213 643.236Z" fill="#80181A"/>
<path d="M16.9507 647.424C19.7075 646.685 22.4215 646.369 25.545 646.05C25.7118 647.152 25.469 648.257 25.0913 649.677C22.4158 649.821 20.1081 650.563 17.6093 651.916C17.1665 650.647 17.0372 649.246 16.9507 647.424Z" fill="#5B0F0F"/>
<path d="M39.0935 649.788C36.54 652.002 33.7949 653.402 30.4255 654.39C30.3307 647.654 35.8184 642.333 44.2953 641.077C43.2193 644.446 39.2681 645.848 39.0935 649.788Z" fill="#80181A"/>
<path d="M-41.9167 663.721C-41.9167 656.279 -35.8837 650.246 -28.4417 650.246H23.2124C30.6545 650.246 36.6874 656.279 36.6874 663.721V715.375C36.6874 722.817 30.6545 728.85 23.2124 728.85H-28.4417C-35.8837 728.85 -41.9167 722.817 -41.9167 715.375V663.721Z" fill="#B8323D"/>
<path d="M-46.0533 697.528C-51.3156 692.266 -51.3156 683.734 -46.0533 678.472L-9.52826 641.947C-4.26595 636.684 4.26594 636.684 9.52826 641.947L46.0533 678.472C51.3156 683.734 51.3156 692.266 46.0533 697.528L9.52826 734.053C4.26594 739.316 -4.26595 739.316 -9.52826 734.053L-46.0533 697.528Z" fill="#B8323D"/>
<path d="M-37.725 666.149C-37.725 659.451 -32.2954 654.021 -25.5975 654.021H20.8912C27.589 654.021 33.0187 659.451 33.0187 666.149V712.638C33.0187 719.336 27.589 724.765 20.8912 724.765H-25.5975C-32.2954 724.765 -37.725 719.336 -37.725 712.638V666.149Z" fill="#A81F25"/>
<path d="M-41.4479 696.575C-46.184 691.839 -46.184 684.161 -41.4479 679.425L-8.57544 646.552C-3.83936 641.816 3.83935 641.816 8.57544 646.552L41.4479 679.425C46.184 684.161 46.184 691.839 41.4479 696.575L8.57544 729.448C3.83935 734.184 -3.83936 734.184 -8.57544 729.448L-41.4479 696.575Z" fill="#A81F25"/>
<path d="M-33.5334 668.577C-33.5334 662.623 -28.707 657.797 -22.7534 657.797H18.57C24.5236 657.797 29.35 662.623 29.35 668.577V709.9C29.35 715.854 24.5236 720.68 18.57 720.68H-22.7534C-28.707 720.68 -33.5334 715.854 -33.5334 709.9V668.577Z" fill="#7F1D1E"/>
<path d="M-36.8426 695.623C-41.0525 691.413 -41.0525 684.587 -36.8426 680.377L-7.62261 651.157C-3.41276 646.948 3.41276 646.948 7.62261 651.157L36.8426 680.377C41.0525 684.587 41.0525 691.413 36.8426 695.623L7.62261 724.843C3.41276 729.052 -3.41276 729.052 -7.62261 724.843L-36.8426 695.623Z" fill="#7F1D1E"/>
<path d="M-29.3417 671.005C-29.3417 665.795 -25.1186 661.572 -19.9092 661.572H16.2487C21.4581 661.572 25.6812 665.795 25.6812 671.005V707.163C25.6812 712.372 21.4581 716.595 16.2487 716.595H-19.9092C-25.1186 716.595 -29.3417 712.372 -29.3417 707.163V671.005Z" fill="#6B0C0F"/>
<path d="M-32.2373 694.67C-35.9209 690.986 -35.9209 685.014 -32.2373 681.33L-6.66978 655.763C-2.98616 652.079 2.98616 652.079 6.66978 655.763L32.2373 681.33C35.9209 685.014 35.9209 690.986 32.2373 694.67L6.66978 720.237C2.98616 723.921 -2.98616 723.921 -6.66978 720.237L-32.2373 694.67Z" fill="#6B0C0F"/>
<path d="M-25.15 673.433C-25.15 668.967 -21.5302 665.348 -17.065 665.348H13.9275C18.3927 665.348 22.0125 668.967 22.0125 673.433V704.425C22.0125 708.89 18.3927 712.51 13.9275 712.51H-17.065C-21.5302 712.51 -25.15 708.89 -25.15 704.425V673.433Z" fill="#7B1719"/>
<path d="M-27.632 693.717C-30.7893 690.56 -30.7893 685.44 -27.632 682.283L-5.71696 660.368C-2.55957 657.211 2.55957 657.211 5.71695 660.368L27.632 682.283C30.7893 685.44 30.7893 690.56 27.632 693.717L5.71695 715.632C2.55957 718.789 -2.55957 718.789 -5.71696 715.632L-27.632 693.717Z" fill="#7B1719"/>
<path d="M-20.9584 675.861C-20.9584 672.14 -17.9419 669.123 -14.2209 669.123H11.6062C15.3272 669.123 18.3437 672.14 18.3437 675.861V701.688C18.3437 705.409 15.3272 708.425 11.6062 708.425H-14.2209C-17.9419 708.425 -20.9584 705.409 -20.9584 701.688V675.861Z" fill="#2D0609"/>
<path d="M-23.0266 692.764C-25.6578 690.133 -25.6578 685.867 -23.0266 683.236L-4.76413 664.973C-2.13298 662.342 2.13297 662.342 4.76413 664.973L23.0266 683.236C25.6578 685.867 25.6578 690.133 23.0266 692.764L4.76413 711.027C2.13297 713.658 -2.13298 713.658 -4.76413 711.027L-23.0266 692.764Z" fill="#2D0609"/>
<path d="M-12.575 680.716C-12.575 678.484 -10.7651 676.674 -8.53251 676.674H6.96373C9.19634 676.674 11.0062 678.484 11.0062 680.716V696.213C11.0062 698.445 9.19634 700.255 6.96373 700.255H-8.53251C-10.7651 700.255 -12.575 698.445 -12.575 696.213V680.716Z" fill="#6B0C0F"/>
<path d="M-13.816 690.858C-15.3947 689.28 -15.3947 686.72 -13.816 685.142L-2.85848 674.184C-1.27979 672.605 1.27978 672.605 2.85848 674.184L13.816 685.142C15.3947 686.72 15.3947 689.28 13.816 690.858L2.85848 701.816C1.27978 703.395 -1.27979 703.395 -2.85848 701.816L-13.816 690.858Z" fill="#6B0C0F"/>
</g>
<g filter="url(#filter1_f_1890_141292)">
<path d="M429.442 208.653C430.455 221.757 424.758 233.094 421.493 244.915C418.873 254.403 415.855 263.782 413.007 273.605C413 274 412.5 274 412.25 274C410.368 267.805 409.567 261.475 409.553 255.098C409.463 213.32 409.496 171.542 409.523 129.763C409.524 127.602 409.49 125.431 410.252 122.861C410.611 122.117 410.697 121.703 410.944 121.553C416.127 118.402 422.282 116.918 426.63 112.281C427.112 111.766 428.537 112.113 429.674 113.169C431.254 115.477 430.951 117.752 431.432 120.343C432.123 122.955 431.521 125.169 431.733 127.795C431.108 132.953 431.442 137.637 431.904 142.806C430.274 149.255 431.79 155.191 431.964 161.633C430.275 167.871 431.822 173.61 431.89 179.852C430.723 182.181 430.997 184.18 431.188 186.138C431.76 192.034 431.476 197.938 431.37 203.838C431.341 205.453 431.251 207.155 429.442 208.653Z" fill="#971B25"/>
<path d="M412.227 121.399C412.097 166.464 412.047 211.033 412 255.601C411.994 261.421 412.001 267.242 412.001 273.531C412 274 411.5 274 411.25 274C406.738 258.044 402.63 242.044 398.14 226.152C396.297 219.626 397.893 212.941 396.157 206.116C394.07 204.734 394.438 202.963 394.512 201.363C394.78 195.585 393.837 189.756 395.302 184.019C395.479 183.325 395.045 182.411 394.351 181.335C394.771 172.453 394.48 163.905 395.404 155.408C395.686 152.814 395.888 150.045 393.342 147.675C392.896 146.839 392.556 146.427 391.853 145.775C389.933 140.953 389.036 136.307 389.122 131.096C389.155 128.761 389.905 127.259 391.434 126.016C392.827 124.883 394.156 123.61 394.521 121.282C394.62 118.614 394.703 116.351 395.8 113.808C398.884 111.347 401.823 111.131 404.314 113.845C406.744 116.494 410.704 117.363 412.227 121.399Z" fill="#4B181B"/>
<path d="M243 83.375C253.08 83.3385 263.129 82.7608 273.63 81.9881C275.968 78.5832 278.897 79.79 281.565 80.3986C291.103 82.5745 300.307 86.0902 310.413 87.6047C312.286 88.2768 312.804 89.9507 314.774 90.3394C321.284 91.6236 321.836 93.2435 318.386 98.9765C321.453 100.694 324.833 101.631 328.066 102.916C330.484 103.877 332.091 105.301 331.066 108.57C328.583 110.889 325.863 110.272 322.804 110.131C319.568 107.963 316.178 107.488 312.922 106.675C304.755 104.635 296.728 102.067 288.499 100.266C287.495 100.046 286.618 99.6661 286.03 98.2796C274.932 93.5359 263.269 91.4754 252.011 88.0168C249.325 87.1916 246.543 86.6798 243.402 86.0119C243 85.25 243 84.5 243 83.375Z" fill="#31121B"/>
<path d="M351.167 218.654C348.008 222.97 345.064 227.071 342.176 231.212C341.425 232.29 340.919 233.91 339.333 233.522C337.572 233.092 338.147 231.302 338.239 230.12C338.739 223.715 339.385 217.321 339.92 210.508C338.319 208.882 338.409 207.117 338.617 205.526C339.388 199.624 339.206 193.646 340.18 187.35C340.069 184.663 341.054 182.771 342.34 181.038C346.346 175.639 349.931 169.911 355.028 164.868C359.87 161.259 365.173 159.554 370.358 157.595C371.782 157.057 373.19 156.68 374.868 158.028C378.876 165.186 378.03 172.601 377.99 180.322C379.037 182.975 378.293 184.918 377.007 186.791C372.206 193.783 367.019 200.5 362.24 207.509C360.248 210.431 357.091 212.089 354.172 214.566C353.917 214.854 353.918 214.925 353.882 214.925C352.995 216.076 351.902 217.061 351.167 218.654Z" fill="#9F2A3A"/>
<path d="M356.097 165.653C352.058 172.802 346.874 178.628 342.201 185.196C340.914 187.676 339.163 189.224 336.814 189.964C330.788 191.863 325.299 195.529 318.317 195.323C311.246 197.461 304.542 199.77 297.832 202.059C297.001 202.342 296.119 203.647 295.289 202.441C294.553 201.37 295.28 200.38 296.067 199.389C299.405 195.188 302.624 190.893 306.082 186.337C306.189 185.791 306.101 185.54 305.868 184.917C305.661 184.013 305.728 183.499 306.15 182.688C313.807 174.885 320.103 166.411 327.016 158.472C329.23 155.929 330.985 152.732 335.188 152.115C340.413 150.559 345.295 149.158 350.198 147.831C352.579 147.186 354.979 146.595 357.752 148.021C359.694 150.132 358.822 152.181 358.586 154.221C358.395 155.882 357.539 157.505 358.323 159.646C359.173 162.407 356.661 163.391 356.097 165.653Z" fill="#D1737A"/>
<path d="M354.209 214.824C354.095 212.308 355.891 210.766 357.418 208.998C364.06 201.307 369.538 192.755 375.364 184.463C375.725 183.95 375.756 183.204 375.992 182.201C379.271 175.689 383.998 170.666 388.603 165.616C391.525 162.41 392.794 159.019 392.562 154.775C392.392 151.659 392.24 148.441 394.666 145.513C396.722 142.316 396.963 144.042 396.975 145.981C397.014 152.398 397.005 158.815 397.001 165.233C396.997 169.84 396.973 174.447 396.938 179.522C393.094 190.507 385.618 198.545 378.267 206.935C371.748 213.205 366.954 220.521 361.754 227.521C357.82 232.818 353.82 238.067 349.865 243.349C349.127 244.335 348.276 245.303 346.988 244.692C345.53 244 346.247 242.827 346.637 241.709C349.677 233.005 352.672 224.285 355.657 215.562C355.735 215.334 355.612 214.853 355.444 214.769C355.195 214.645 354.822 214.773 354.209 214.824Z" fill="#91182E"/>
<path d="M317.93 195.529C325.145 190.596 333.484 188.842 341.618 185.546C342.326 193.465 342.36 201.482 340.003 209.709C331.134 215.461 322.411 220.834 313.677 226.191C312.298 227.037 310.777 228.572 309.207 227.317C307.357 225.837 308.841 223.853 309.488 222.325C313.109 213.769 314.676 204.57 317.93 195.529Z" fill="#3E1418"/>
<path d="M307.167 185.03C307.064 185.574 306.941 185.805 306.478 186.002C302.761 185.81 300.608 188.463 297.972 190.038C294 192.412 290.14 194.971 286.226 197.442C284.993 198.22 283.557 199.61 282.262 198.272C280.854 196.818 282.66 195.458 283.444 194.459C290.48 185.497 297.596 176.596 304.818 167.782C306.286 165.991 307.109 164.203 306.933 161.55C306.499 159.149 307.641 158.184 309.283 157.405C311.511 156.348 313.566 154.975 315.992 153.437C318.553 153.744 320.561 152.86 322.042 151.685C325.255 149.14 329.102 147.854 332.531 145.771C334.43 144.618 336.528 144.321 338.791 146.183C340.938 150.421 337.793 151.687 335.081 153.641C326.077 162.643 318.672 172.429 310.759 181.779C310.132 182.519 309.36 183.135 308.329 183.905C307.75 184.253 307.511 184.516 307.167 185.03Z" fill="#332226"/>
<path d="M285.621 98.0482C298.488 98.9187 310.186 103.374 322.385 107.203C322.881 109.438 322.017 110.889 319.97 112.159C319.076 112.695 318.555 112.985 317.639 113.497C316.963 113.819 316.673 113.907 315.934 114.02C312.326 112.879 309.905 114.667 307.236 115.893C304.188 117.293 301.04 119.767 297.25 116.368C289.973 113.238 282.998 110.427 276.066 107.51C274.937 107.034 273.342 106.684 273.295 105.052C273.246 103.379 274.861 103.084 275.977 102.54C279.057 101.038 282.195 99.6555 285.621 98.0482Z" fill="#734554"/>
<path d="M317.252 155.686C313.943 157.816 310.996 159.782 307.264 161.026C303.613 162.078 300.314 163.07 296.967 163.855C295.948 164.094 294.687 164.975 293.727 163.839C292.574 162.475 293.816 161.288 294.445 160.29C298.568 153.757 302.805 147.296 307.08 140.469C308.629 136.332 312.272 136.232 315.39 135.584C319.431 134.744 323.537 134.174 328.051 133.521C332.301 133.726 333.147 135.558 331.298 138.769C327.659 145.089 323.346 150.861 317.252 155.686Z" fill="#672E39"/>
<path d="M377.932 207.409C378.037 204.722 378.977 202.834 380.343 201.111C385.77 194.262 390.452 186.835 396.657 180.187C396.674 188.323 397.889 196.702 396.016 205.376C392.2 211.731 386.975 216.371 382.254 221.454C381.675 222.078 381.217 222.852 380.277 222.619C379.031 222.31 379.108 221.164 379.046 220.195C378.779 216.077 377.512 212.046 377.932 207.409Z" fill="#632336"/>
<path d="M296.864 116.412C303.603 116.41 308.917 111.87 315.639 110.996C318.314 113.04 316.829 114.48 315.194 115.763C308.582 120.953 301.941 126.137 294.722 130.44C292.819 131.575 291.621 132.933 290.137 134.808C284.714 137.644 278.83 136.3 273.264 138.513C272.568 138.772 272.238 138.912 271.918 138.889C270.589 138.796 268.873 140.827 268.044 138.757C267.462 137.305 269.501 136.782 270.504 136.075C277.95 130.82 285.468 125.669 292.916 120.418C294.365 119.396 296.225 118.725 296.864 116.412Z" fill="#311E26"/>
<path d="M273.368 138.77C277.031 133.982 283.322 135.228 288.789 133.014C290.59 131.982 292.192 131.223 293.798 131.113C305.313 130.323 316.839 129.763 328.716 131.729C329.478 132.663 329.612 133.306 329.217 134.422C321.739 135.791 314.907 138.222 307.534 140.062C304.273 138.381 301.074 139.049 297.996 139.003C289.946 138.881 281.894 138.882 273.368 138.77Z" fill="#250E12"/>
<path d="M411.574 -14.8724C416.043 -22.3336 422.271 -28.1678 424.947 -36.5991C429.838 -40.8624 431.9 -46.807 435.69 -51.4885C436.633 -52.6535 437.115 -54.3235 438.942 -53.7874C440.699 -53.272 439.944 -51.5522 439.96 -50.3736C440.05 -43.9098 440.019 -37.4442 440.075 -30.5159C441.58 -29.2482 442.168 -27.9525 442.049 -26.3594C441.288 -16.1935 441.251 -5.97698 439.762 4.54734C434.62 8.60966 432.394 14.4934 427.995 19.0722C424.964 20.071 423.643 18.3862 422.466 16.4477C420.256 12.8084 417.743 9.32711 416.092 5.39116C415.426 3.80371 414.416 2.93557 412.66 2.07249C411.73 1.25629 411.021 0.779751 410.666 -0.50523C410.766 -5.46502 409.739 -10.0545 411.574 -14.8724Z" fill="#9D5158"/>
<path d="M280.94 43.3714C276.178 37.1691 271.365 31.3366 266.167 25.037C275.381 24.1532 282.112 30.039 290.55 30.0038C292.204 29.3896 293.391 29.2898 294.783 29.7487C315.164 36.4687 335.49 43.3573 355.901 49.9864C356.536 50.1924 357.047 50.6541 357.872 51.3536C359.802 54.4507 362.053 57.0559 360.409 61.0438C358.772 62.9098 357.062 63.0036 355.155 62.7746C346.261 61.7068 337.829 65.402 329.03 65.3852C327.718 65.3828 327.098 66.439 325.965 67.4805C324.595 68.1598 323.557 68.5727 322.297 69.4724C318.446 71.0265 315.146 69.7165 311.883 68.7667C307.478 67.4851 303.103 66.1132 298.234 65.0291C294.277 58.3088 288.419 53.6576 283.547 48.1653C282.376 46.8448 280.563 45.9476 280.94 43.3714Z" fill="#BE474E"/>
<path d="M297.56 62.4204C305.946 63.2225 313.117 67.5127 321.935 67.9635C322.98 67.7958 323.237 67.7549 323.88 67.7755C329.325 71.1306 334.463 74.3589 335.177 81.4723C327.967 86.9813 319.991 89.4398 311.028 90.2988C301.257 89.0127 292.372 85.6935 283.203 83.5166C280.476 82.8693 277.683 82.4983 274.504 81.9897C266.67 79.9629 259.207 78.0883 251.877 75.7908C250.671 75.4128 248.022 75.8836 248.132 73.5221C248.261 70.7504 250.657 72.3491 252.017 72.0169C258.746 70.3736 265.497 68.8199 272.588 67.0385C273.645 65.6214 274.701 64.9342 276.089 64.6706C281.621 63.6201 287.072 62.1826 292.625 61.2238C294.318 60.9316 295.866 60.9215 297.56 62.4204Z" fill="#D07276"/>
<path d="M398.669 -35.092C401.394 -27.604 406.698 -21.9974 410.79 -15.277C412.077 -10.6531 411.219 -6.21978 411.506 -1.39378C412.883 2.5809 412.45 5.88766 410.313 9.02005C407.533 13.0935 405.224 17.5021 401.341 21.2293C397.339 21.6636 395.463 18.9547 392.962 16.593C392.5 16.2019 392.317 16.0485 391.873 15.6615C391.449 15.2678 391.287 15.1077 390.896 14.7006C390.386 14.1178 390.118 13.7706 389.681 13.1515C389.366 12.7245 389.239 12.5552 388.917 12.1337C388.591 11.7126 388.46 11.5436 388.132 11.1164C387.807 10.6812 387.677 10.5041 387.367 10.0437C387.085 9.55449 386.983 9.34863 386.734 8.82489C386.482 6.28374 384.332 5.4234 383.176 3.41415C381.318 -0.789387 381.813 -4.90761 381.457 -8.94323C380.2 -23.2078 384.574 -37.1777 383.524 -51.4174C383.444 -52.5094 383.854 -53.3724 385.587 -53.279C390.144 -47.1372 394.249 -41.1905 398.669 -35.092Z" fill="#C8565C"/>
<path d="M357.156 52.3944C350.084 51.4493 343.972 48.7777 337.674 46.7659C323.638 42.282 309.663 37.6083 295.69 32.9317C294.159 32.4196 292.804 31.3842 291.168 30.2996C282.69 24.2951 274.419 18.5712 266.119 12.8903C265.422 12.4138 264.443 12.0193 264.742 11.1315C265.257 9.60409 266.619 10.0921 267.687 10.4085C274.507 12.4294 281.31 14.5089 288.123 16.5545C294.14 18.3609 300.162 20.1483 306.57 21.9481C310.285 20.7006 312.888 24.5957 316.636 23.3045C323.795 27.3198 331.28 29.4933 338.607 32.003C345.302 34.2964 351.404 37.9955 358.473 40.3391C359.445 43.9255 360.591 47.1308 359.4 50.921C358.738 51.803 358.229 52.1479 357.156 52.3944Z" fill="#641418"/>
<path d="M326.653 -17.7304C335.055 -14.2967 341.968 -8.82182 349.441 -4.25919C350.989 -3.3141 352.416 -0.911623 354.606 -2.30994C356.529 -3.53755 355.824 -5.9178 355.944 -7.8647C356.292 -13.4756 356.627 -19.0873 356.99 -24.6972C357.063 -25.8225 356.878 -27.1873 358.303 -27.6213C359.609 -28.0192 360.559 -27.1111 361.274 -26.2118C364.356 -22.3361 367.364 -18.4025 370.651 -14.2821C371.953 -14.0374 372.689 -13.51 373.315 -12.1529C374.796 -1.74706 374.755 8.23421 374.092 18.6603C372.581 22.4868 370.332 21.6652 367.968 20.2887C358.255 14.6339 349.098 8.13149 339.854 1.76506C338.56 0.874052 337.544 -0.420084 335.38 -0.446947C330.541 -4.39245 328.206 -9.65614 325.741 -14.8092C325.37 -15.5839 325.453 -16.7451 326.653 -17.7304Z" fill="#5D151D"/>
<path d="M297.951 62.3589C289.811 63.8659 282.063 66.904 273.366 66.9653C265.086 60.9763 257.235 55.1129 249.39 49.2419C247.719 47.9917 244.856 46.9224 245.69 44.6151C246.505 42.3607 249.499 43.1981 251.585 43.178C261.075 43.0868 270.566 43.1023 280.523 43.0405C287.699 48.408 294.026 54.1568 297.951 62.3589Z" fill="#3A141C"/>
<path d="M372.22 -11.6849C371.721 -12.5375 371.445 -13.0473 371.035 -13.8156C371.339 -28.4936 370.301 -42.8547 369.211 -57.2145C369.099 -58.6817 368.701 -60.6352 370.51 -61.0546C372.355 -61.4825 372.808 -59.4385 373.318 -58.1414C376.337 -50.464 378.204 -42.3577 383.017 -34.884C383.017 -40.1357 382.906 -45.3913 383.093 -50.6363C383.141 -51.9884 382.019 -55.2208 385.899 -53.3719C384.408 -52.7199 384.07 -51.5336 384.081 -50.0807C384.216 -32.9708 384.335 -15.8608 384.491 1.24895C384.497 1.88914 384.832 2.52633 385.151 3.56006C385.458 5.04902 385.813 6.15395 384.8 7.49853C381.458 9.13946 380.383 6.8769 379.197 4.86841C376.194 -0.220375 374.054 -5.67184 372.22 -11.6849Z" fill="#31282E"/>
<path d="M357.204 40.5892C347.243 39.045 338.493 34.4426 329.22 31.3692C324.99 29.9672 320.648 28.6976 316.532 26.0676C313.677 23.2754 309.073 22.5091 308.888 17.3702C308.195 14.77 304.576 13.0666 306.343 10.7642C307.871 8.77277 310.921 10.312 313.334 10.8837C319.569 12.3611 326.018 12.8399 332.526 14.8743C335.637 12.9487 336.543 15.5214 338.046 16.8594C340.316 18.8797 340.809 22.7241 344.934 23.2585C348.365 26.8189 350.624 30.9258 353.722 34.4204C354.751 35.581 355.751 36.6687 357.271 37.8002C357.818 38.8416 357.813 39.578 357.204 40.5892Z" fill="#683F4E"/>
<path d="M344.819 25.1149C339.278 23.7342 337.118 18.6942 333.194 15.0711C329.851 4.75609 326.727 -5.34358 323.776 -15.4935C323.164 -17.5985 322.036 -21.0238 326.831 -18.2005C327.307 -13.4965 330.912 -10.8745 332.852 -7.3368C333.715 -5.76143 334.578 -4.18562 335.603 -2.32036C338.197 -0.243252 339.629 2.19674 340.555 5.03195C342.099 9.75939 343.794 14.4386 345.222 19.2024C345.774 21.0419 346.769 22.9782 344.819 25.1149Z" fill="#2B181D"/>
<path d="M356.279 165.917C354.852 164.563 355.579 163.097 356.06 161.308C359.005 152.789 365.206 146.9 370.687 140.621C373.831 137.02 376.409 132.984 380.107 129.371C383.785 128.406 387.105 126.484 390.712 129.47C391.653 134.571 392.334 139.309 393.019 144.47C393.299 146.143 393.353 147.24 392.686 148.539C389.402 154.936 380.887 160.197 374.375 159.23C368.223 161.287 362.423 163.539 356.279 165.917Z" fill="#6E1E1E"/>
<path d="M384.63 103.682C386.754 111.391 389.01 113.429 396.552 114.195C396.959 116.548 396.966 118.84 396.966 121.566C394.514 123.956 392.303 122.991 390.148 121.448C387.598 119.621 384.878 118.642 381.366 119.733C375.017 122.402 368.885 124.684 362.613 127.662C360.496 128.647 358.896 130.158 356.384 128.915C353.787 126.235 355.718 123.896 356.139 121.136C357.823 114.197 355.052 110.106 349.006 107.867C345.979 106.745 346.873 104.709 347.939 102.35C349.825 100.638 352.151 101.361 354.285 100.095C361.994 102.302 369.484 101.227 376.882 101.54C379.457 101.65 382.251 101.057 384.63 103.682Z" fill="#80181A"/>
<path d="M374.1 159.441C381.493 156.24 388.132 152.311 392.813 145.158C393.451 144.978 393.879 145.063 394.626 145.214C394.932 145.946 394.774 146.646 394.927 147.271C399.05 164.163 386.069 172.007 376.377 181.8C375.421 174.505 374.798 167.176 374.1 159.441Z" fill="#C5494E"/>
<path d="M380.524 118.434C383.113 115.048 385.608 115.279 388.553 117.315C390.992 119.002 393.721 120.269 396.639 121.861C397.894 126.547 393.755 127.261 391.194 129.584C387.512 129.65 384.255 130.774 380.502 131.455C376.25 131.15 377.171 128.196 376.965 125.38C377.287 122.469 378.492 120.474 380.524 118.434Z" fill="#491E1E"/>
<path d="M354.161 101.728C352.538 102.549 351.159 103.113 349.491 103.81C346.319 105.385 346.448 106.952 349.284 108.091C351.751 109.081 353.575 110.032 351.306 113.136C345.03 115.35 339.739 112.006 333.735 111.063C332.104 110.128 331.132 109.151 330.67 107.271C323.996 104.253 317.452 101.635 310.675 98.9236C312.926 96.1075 316.595 97.047 318.837 94.5462C316.805 92.1138 313.326 92.7535 310.883 90.634C317.667 85.8795 325.947 84.4781 333.807 81.0366C338.011 79.0264 339.208 83.1763 341.967 84.5454C342.595 85.7458 343.189 86.5357 343.784 87.7351C343.954 90.1131 345.576 90.7255 346.897 91.8441C350.028 94.4939 354.745 96.0726 354.161 101.728Z" fill="#CA494D"/>
<path d="M330.146 107.006C331.493 106.907 332.274 107.273 332.965 108.303C334.682 110.904 333.147 112.386 331.803 114.201C329.886 116.79 326.163 117.767 325.583 121.712C328.15 124.875 331.779 123.526 334.789 124.475C337.063 125.192 339.397 125.411 339.607 128.89C337.375 134.465 335.061 135.481 329.265 133.466C315.93 133.172 303.007 133.097 289.631 132.969C290.96 129.468 294.55 128.093 297.356 125.829C303.417 120.94 310.358 117.205 315.985 111.346C316.029 111.007 315.977 110.988 315.979 111.016C316.486 110.464 317.267 110.518 318.229 110.099C319.734 109.275 320.904 108.57 322.373 107.649C325.045 107.668 327.417 107.845 330.146 107.006Z" fill="#9C3242"/>
<path d="M411.623 0.0125694C410.453 -4.34866 411.057 -9.22591 410.968 -14.544C411 -15.0131 411.422 -15.1473 411.639 -15.1914C411.818 -10.3033 411.78 -5.3711 411.623 0.0125694Z" fill="#884348"/>
<path d="M379.422 124.389C379.687 126.698 379.083 128.726 379.975 131.124C379.275 136.747 374.793 139.322 371.752 142.913C366.745 148.825 362.451 155.347 356.415 160.798C355.599 157.29 356.393 153.652 356.575 149.593C352.928 142.263 355.64 132.575 362.935 127.182C368.337 124.849 373.443 123.004 379.422 124.389Z" fill="#491E1E"/>
<path d="M364.081 127.548C357.662 133.333 358.137 141.165 356.66 148.779C349.357 150 342.773 153.374 335.12 153.893C335.793 151.788 336.896 149.683 338.101 147.234C336.87 145.33 337.946 144.192 338.855 142.993C341.542 139.452 344.26 135.908 347.515 132.894C348.899 131.613 349.797 130.208 350.86 128.338C352.869 127.387 354.552 126.355 356.81 127.733C358.508 127.315 359.853 126.705 361.516 126.073C362.821 126.012 363.758 126.073 364.081 127.548Z" fill="#C1494E"/>
<path d="M307.282 185.115C307.281 185.004 307.514 184.739 307.875 184.238C307.84 184.322 307.678 184.641 307.282 185.115Z" fill="black"/>
<path d="M351.798 129.565C348.421 136.229 343.593 141.397 338.464 146.712C332.869 147.19 329.029 150.977 324.361 152.838C322.092 153.742 319.901 154.843 317.312 155.91C318.909 150.525 323.412 146.773 326.248 141.929C327.493 139.802 330.312 138.31 329.128 134.997C328.913 134.489 328.892 134.134 328.861 133.513C332.369 132.929 335.67 132.142 338.053 128.771C338.789 125.811 340.886 125.701 342.888 126.025C345.962 126.523 349.253 126.592 351.798 129.565Z" fill="#6C1A23"/>
<path d="M411.458 0.817123C411.504 0.464103 411.535 0.533325 411.569 0.545059C412.196 0.215058 412.789 -0.126672 413.672 -0.640015C415.678 2.50977 416.392 6.10127 416.431 9.77762C416.564 22.0917 416.55 34.4075 416.43 46.7218C416.408 48.9849 416.725 51.4539 414.243 53.51C405.917 57.7101 397.908 61.3745 389.101 62.8758C388.665 62.9503 388.298 63.4331 387.599 63.9074C387.057 64.0386 386.815 63.9881 386.29 63.6996C384.355 60.0801 386.018 57.7442 388.688 56.0709C390.081 55.1978 391.521 54.5269 392.62 52.7755C394.484 50.5658 394.235 48.3029 393.993 45.6317C395.197 41.7855 394.614 38.3191 393.989 34.9075C393.339 31.3628 393.733 27.957 394.802 24.5951C395.467 22.5039 396.338 20.5077 399.388 20.1128C403.876 13.8211 408.63 8.10479 411.458 0.817123Z" fill="#4D191C"/>
<path d="M387.221 64.0901C386.192 66.4092 385.033 68.7141 385.097 71.7856C382.266 75.0228 378.701 75.3863 374.966 75.5027C368.345 75.7091 361.605 74.6057 354.715 77.1982C352.036 76.4728 349.328 76.8377 347.599 74.1467C347.167 71.0742 348.343 69.2546 350.838 68.4031C354.395 67.1886 357.048 64.9246 359.242 61.4984C358.662 58.4809 357.871 55.7599 356.884 52.7393C356.969 52.0479 357.249 51.656 357.778 51.0036C360.184 49.4141 362.175 49.8368 364.047 51.3367C365.157 52.2266 366.432 52.5331 368.229 52.489C372.96 54.7757 377.267 57.1264 381.785 58.9743C384.087 59.9157 385.414 61.4534 386.743 63.7482C386.996 64.0319 387.142 64.0911 387.221 64.0901Z" fill="#80181A"/>
<path d="M348.917 71.6709C349.775 74.0202 351.372 74.7235 353.625 75.0126C354.249 75.4632 354.642 75.8974 354.584 76.3681C354.141 79.9582 345.431 86.8913 341.121 86.6558C338.768 84.7006 336.781 82.9286 334.482 81.0428C331.324 76.4119 327.442 72.8642 323.177 69.2151C322.778 68.8187 322.628 68.6473 322.222 68.2515C321.965 68.027 321.986 68.0224 321.981 68.036C321.971 67.0035 320.317 65.7567 322.661 64.9258C330.154 64.6796 337.023 66.3788 343.851 68.3391C345.76 68.8873 347.724 69.3325 348.917 71.6709Z" fill="#4C1013"/>
<path d="M349.334 71.9355C340.401 70.3278 331.941 68.0107 323.275 65.1056C334.744 62.7756 346.238 58.0872 359.008 61.1019C361.41 65.2218 359.935 67.6163 355.928 69.0207C353.779 69.7737 351.745 70.8533 349.334 71.9355Z" fill="#6E1F1F"/>
<path d="M322.073 68.2341C322.309 68.0739 322.576 68.243 322.846 68.7622C322.635 68.8668 322.386 68.6839 322.073 68.2341Z" fill="#BE474E"/>
<path d="M399.555 19.7636C396.535 24.7167 395.758 29.9171 396.606 35.5829C397.068 38.6699 396.853 41.8581 396.893 45.4534C393.794 47.3642 392.196 45.0044 390.008 43.1584C386.945 40.3153 383.728 38.0548 383.208 33.4001C381.887 25.2513 382.901 17.4278 382.065 9.68894C381.967 8.77425 382.592 8.17119 383.601 7.35663C384.297 6.2484 384.598 5.38683 385.094 4.24023C387.046 4.47701 387.942 5.85919 388.844 7.65778C389.22 8.1748 389.447 8.41752 389.845 8.84235C390.023 9.01663 389.987 9.01367 389.985 8.99593C390.237 9.24984 390.511 9.50057 391.044 9.87413C391.463 10.1477 391.629 10.2935 391.889 10.5815C392.336 11.2662 392.492 11.8872 392.818 12.7689C393.021 13.018 392.982 13.017 392.983 12.9976C393.232 13.2419 393.496 13.4878 393.997 13.8736C395.914 15.8775 397.611 17.7237 399.555 19.7636Z" fill="#C6444A"/>
<path d="M392.948 12.7098C392.728 12.4581 392.435 11.8982 392.07 11.0229C392.29 11.2723 392.583 11.837 392.948 12.7098Z" fill="#AD323D"/>
<path d="M389.869 8.81976C389.768 8.80266 389.529 8.57107 389.146 8.13086C389.228 8.16757 389.472 8.39525 389.869 8.81976Z" fill="#AD323D"/>
<path d="M394.027 13.8375C393.933 13.8088 393.647 13.5864 393.173 13.171C393.268 13.2 393.552 13.4219 394.027 13.8375Z" fill="#AD323D"/>
<path d="M391.074 9.8336C390.982 9.79967 390.682 9.58157 390.182 9.17078C390.276 9.20187 390.571 9.42566 391.074 9.8336Z" fill="#AD323D"/>
<path d="M385.237 33.8034C386.646 36.8363 388.641 39.0717 390.719 41.6316C390.622 43.1398 391.219 44.4753 390.045 45.84C387.49 47.0304 385.594 46.3673 383.616 44.0618C383.682 47.8601 385.535 50.6857 385.358 53.8546C385.113 58.2466 383.137 59.647 379.177 57.7137C374.889 55.6206 370.831 53.0859 367.562 49.9241C369.245 51.7197 369.245 51.7197 368.371 54.7058C364.654 54.2675 361.781 52.3763 358.345 50.9218C357.675 47.7415 357.323 44.7399 356.956 41.3036C356.636 40.3479 356.333 39.8269 355.89 39.0373C353.89 34.6804 352.241 30.5465 352.664 25.9053C353.077 21.3644 354.834 20.0727 359.216 21.4657C364.397 23.1129 369.315 25.451 374.724 27.6803C378.753 29.1177 381.838 31.3324 385.237 33.8034Z" fill="#6C1E1F"/>
<path d="M375.338 29.713C369.959 28.1128 364.929 26.4055 360.041 24.3619C355.993 22.6698 354.821 24.3528 355.118 28.0494C355.382 31.341 356.406 34.5732 355.805 38.3479C351.477 34.9997 346.843 31.5395 344.634 25.6624C341.653 16.5256 338.783 7.63472 335.838 -1.64341C338.436 -2.075 340.511 -0.616496 342.598 0.747571C352.218 7.03389 361.818 13.3491 371.717 19.8307C376.481 21.4156 377.909 25.0251 375.338 29.713Z" fill="#9B333D"/>
<path d="M375.22 30.1637C375.169 26.5519 373.65 23.6277 372.173 20.3267C372 9.64348 371.991 -0.72044 371.99 -11.556C375.755 -9.43124 376.638 -5.00093 378.775 -1.37371C380.349 1.29672 381.235 4.36946 383.735 6.88063C385.766 15.6702 384.409 24.4208 385.594 33.4852C381.7 34.2986 378.317 33.1468 375.22 30.1637Z" fill="#3E1116"/>
<path d="M340.731 86.6891C345.882 83.843 349.225 79.1114 353.78 75.3188C355.782 73.3654 357.955 72.9936 360.372 72.9515C368.316 72.8131 376.258 72.5117 384.632 72.226C385.305 75.2133 384.189 77.6449 381.89 79.6182C379.241 81.8917 377.767 84.7493 377.825 88.72C376.596 90.6755 374.95 91.294 373.061 91.3472C364.647 91.5839 356.232 91.621 347.82 91.3229C345.647 91.2458 343.614 90.4039 341.215 89.2242C340.751 88.2968 340.729 87.6013 340.731 86.6891Z" fill="#941B25"/>
<path d="M340.965 89.2796C352.814 88.9959 364.855 88.9994 377.346 89.0654C378.205 91.8818 379.829 93.914 381.912 95.5385C384.469 97.5333 385.567 100.004 385.003 103.605C377.195 104.01 369.442 103.99 361.69 104.012C359.183 104.018 356.733 103.887 354.253 102.179C350.393 97.0963 345.119 94.0059 340.965 89.2796Z" fill="#4C181B"/>
<path d="M352.294 129.932C347.616 129.632 343.412 128.165 338.59 128.437C334.345 126.399 329.952 126.703 325.905 125.572C324.308 125.125 321.552 125.84 321.904 122.348C330.486 116.268 340.499 115.499 350.511 113.592C352.877 116.151 354.877 118.657 358.55 119.498C358.228 122.185 357.664 124.646 357.132 127.516C355.654 128.564 354.144 129.203 352.294 129.932Z" fill="#CB494D"/>
<path d="M358.895 119.429C355.369 120.631 351.946 121.539 347.78 122.643C348.978 119.938 349.901 117.851 350.859 115.425C350.682 114.228 350.484 113.37 350.647 112.148C350.279 109.406 348.108 109.63 346.519 109.036C345.029 108.477 343.293 108.479 341.857 106.72C343.917 105.321 346.071 104.446 348.811 103.952C348.64 107.767 352.201 107.376 354.066 108.353C360.932 111.948 361 111.82 358.895 119.429Z" fill="#821E1F"/>
<path d="M364.397 127.841C363.404 127.42 362.815 126.947 362.03 126.263C367.704 122.904 373.593 119.803 380.441 118.068C380.517 120.056 380.223 122.015 379.85 124.326C375.057 127.042 369.765 126.629 364.397 127.841Z" fill="#9F1822"/>
<path d="M350.26 111.841C352.053 112.518 352.6 113.412 351.102 114.903C341.599 117.669 332.342 120.397 322.403 122.043C324.657 117 329.539 113.801 332.927 108.877C338.948 108.318 343.942 112.435 350.26 111.841Z" fill="#841F2C"/>
<path d="M365.023 54.6192C363.739 50.3813 359.085 47.9698 357 42.8694C364.647 46.8252 370.907 50.1373 377.272 53.3126C379.24 54.2946 381.407 56.4565 383.771 54.8763C385.924 53.4373 384.317 51.1335 383.735 49.245C382.868 46.4292 381.778 43.6562 380.992 40.8269C380.571 39.3137 378.934 37.2116 380.896 36.2918C383.324 35.1535 384.619 37.6371 386.212 38.7411C388.242 40.1483 390.09 41.7284 392.408 43.3881C394.036 43.5887 395.27 44.1399 395.22 45.0213C394.962 49.5446 398.953 51.5624 403 54.0449C402.672 56.2151 400.799 56.6491 398.761 56.7673C393.49 57.073 391.134 59.6961 390.277 64C381.954 61.2288 373.668 58.0477 365.023 54.6192Z" fill="#80181A"/>
<path d="M378.496 35.5032C378.477 35.5091 378.515 35.4973 378.496 35.5032V35.5032Z" fill="#80181A"/>
<path d="M372.083 71.721C372.083 64.279 378.116 58.246 385.558 58.246H437.212C444.654 58.246 450.687 64.279 450.687 71.721V123.375C450.687 130.817 444.654 136.85 437.212 136.85H385.558C378.116 136.85 372.083 130.817 372.083 123.375V71.721Z" fill="#B8323D"/>
<path d="M367.947 105.528C362.684 100.266 362.684 91.734 367.947 86.4717L404.472 49.9467C409.734 44.6844 418.266 44.6844 423.528 49.9467L460.053 86.4717C465.316 91.734 465.316 100.266 460.053 105.528L423.528 142.053C418.266 147.316 409.734 147.316 404.472 142.053L367.947 105.528Z" fill="#B8323D"/>
<path d="M376.275 74.1489C376.275 67.4511 381.705 62.0214 388.402 62.0214H434.891C441.589 62.0214 447.019 67.4511 447.019 74.1489V120.638C447.019 127.336 441.589 132.765 434.891 132.765H388.402C381.705 132.765 376.275 127.336 376.275 120.638V74.1489Z" fill="#A81F25"/>
<path d="M372.552 104.575C367.816 99.8394 367.816 92.1606 372.552 87.4246L405.425 54.5521C410.161 49.816 417.839 49.816 422.575 54.5521L455.448 87.4246C460.184 92.1606 460.184 99.8394 455.448 104.575L422.575 137.448C417.839 142.184 410.161 142.184 405.425 137.448L372.552 104.575Z" fill="#A81F25"/>
<path d="M380.467 76.5768C380.467 70.6232 385.293 65.7968 391.247 65.7968H432.57C438.524 65.7968 443.35 70.6232 443.35 76.5768V117.9C443.35 123.854 438.524 128.68 432.57 128.68H391.247C385.293 128.68 380.467 123.854 380.467 117.9V76.5768Z" fill="#7F1D1E"/>
<path d="M377.157 103.623C372.948 99.4128 372.948 92.5872 377.157 88.3774L406.377 59.1574C410.587 54.9475 417.413 54.9475 421.623 59.1574L450.843 88.3774C455.052 92.5872 455.052 99.4128 450.843 103.623L421.623 132.843C417.413 137.052 410.587 137.052 406.377 132.843L377.157 103.623Z" fill="#7F1D1E"/>
<path d="M384.658 79.0047C384.658 73.7953 388.881 69.5722 394.091 69.5722H430.249C435.458 69.5722 439.681 73.7953 439.681 79.0047V115.163C439.681 120.372 435.458 124.595 430.249 124.595H394.091C388.881 124.595 384.658 120.372 384.658 115.163V79.0047Z" fill="#6B0C0F"/>
<path d="M381.763 102.67C378.079 98.9862 378.079 93.0138 381.763 89.3302L407.33 63.7627C411.014 60.0791 416.986 60.0791 420.67 63.7627L446.237 89.3302C449.921 93.0138 449.921 98.9862 446.237 102.67L420.67 128.237C416.986 131.921 411.014 131.921 407.33 128.237L381.763 102.67Z" fill="#6B0C0F"/>
<path d="M388.85 81.4326C388.85 76.9674 392.47 73.3476 396.935 73.3476H427.927C432.393 73.3476 436.012 76.9674 436.012 81.4326V112.425C436.012 116.89 432.393 120.51 427.927 120.51H396.935C392.47 120.51 388.85 116.89 388.85 112.425V81.4326Z" fill="#7B1719"/>
<path d="M386.368 101.717C383.211 98.5596 383.211 93.4404 386.368 90.283L408.283 68.368C411.44 65.2107 416.56 65.2107 419.717 68.368L441.632 90.283C444.789 93.4404 444.789 98.5596 441.632 101.717L419.717 123.632C416.56 126.789 411.44 126.789 408.283 123.632L386.368 101.717Z" fill="#7B1719"/>
<path d="M393.042 83.8605C393.042 80.1395 396.058 77.123 399.779 77.123H425.606C429.327 77.123 432.344 80.1395 432.344 83.8605V109.688C432.344 113.409 429.327 116.425 425.606 116.425H399.779C396.058 116.425 393.042 113.409 393.042 109.688V83.8605Z" fill="#2D0609"/>
<path d="M390.973 100.764C388.342 98.133 388.342 93.867 390.973 91.2359L409.236 72.9734C411.867 70.3422 416.133 70.3422 418.764 72.9734L437.027 91.2359C439.658 93.867 439.658 98.133 437.027 100.764L418.764 119.027C416.133 121.658 411.867 121.658 409.236 119.027L390.973 100.764Z" fill="#2D0609"/>
<path d="M401.425 88.7163C401.425 86.4837 403.235 84.6738 405.467 84.6738H420.964C423.196 84.6738 425.006 86.4837 425.006 88.7163V104.213C425.006 106.445 423.196 108.255 420.964 108.255H405.467C403.235 108.255 401.425 106.445 401.425 104.213V88.7163Z" fill="#6B0C0F"/>
<path d="M400.184 98.8585C398.605 97.2798 398.605 94.7202 400.184 93.1415L411.142 82.184C412.72 80.6053 415.28 80.6053 416.858 82.184L427.816 93.1415C429.395 94.7202 429.395 97.2798 427.816 98.8585L416.858 109.816C415.28 111.395 412.72 111.395 411.142 109.816L400.184 98.8585Z" fill="#6B0C0F"/>
</g>
</g>
<defs>
<filter id="filter0_f_1890_141292" x="-182" y="512" width="365" height="365" filterUnits="userSpaceOnUse" color-interpolation-filters="sRGB">
<feFlood flood-opacity="0" result="BackgroundImageFix"/>
<feBlend mode="normal" in="SourceGraphic" in2="BackgroundImageFix" result="shape"/>
<feGaussianBlur stdDeviation="5.5" result="effect1_foregroundBlur_1890_141292"/>
</filter>
<filter id="filter1_f_1890_141292" x="232" y="-80" width="365" height="365" filterUnits="userSpaceOnUse" color-interpolation-filters="sRGB">
<feFlood flood-opacity="0" result="BackgroundImageFix"/>
<feBlend mode="normal" in="SourceGraphic" in2="BackgroundImageFix" result="shape"/>
<feGaussianBlur stdDeviation="5.5" result="effect1_foregroundBlur_1890_141292"/>
</filter>
<clipPath id="clip0_1890_141292">
<rect width="412" height="917" fill="white"/>
</clipPath>
</defs>
</svg>
