<svg width="343" height="343" viewBox="0 0 343 343" fill="none" xmlns="http://www.w3.org/2000/svg">
<g clip-path="url(#clip0_755_2054)">
<path d="M207.614 256.787C213.585 264.69 219.248 272.216 224.846 279.791C226.014 281.37 226.942 283.127 227.997 285.129C228.116 285.879 228.303 286.259 228.819 286.812C229.053 287.033 228.983 286.959 229.021 286.924C233.098 294.933 237.431 302.875 237.604 312.232C237.616 312.9 237.539 313.525 237.175 314.529C234.853 314.603 233.045 313.741 231.809 312.072C224.016 301.541 216.27 290.975 208.274 280.177C204.438 279.318 204.057 276.366 203.532 273.122C204.657 269.253 203.268 265.988 203.056 262.656C202.911 260.39 202.232 258.014 204.964 256.148C206.091 255.937 206.711 256.083 207.614 256.787Z" fill="#2F1D24"/>
<path d="M187.108 184.579C197.585 183.861 200.282 181.891 201.291 173.46C202.615 171.175 204.32 169.937 206.627 169.783C213.58 169.317 220.538 169.372 227.492 169.761C228.637 169.825 229.787 170.119 230.888 171.499C231.967 172.204 232.757 172.475 233.478 172.872C234.451 173.406 235.915 173.631 235.926 175.011C235.938 176.453 234.504 176.626 233.446 177.034C232.829 177.272 232.205 177.497 231.6 177.762C224.137 181.038 223.992 181.379 226.824 189.642C227.819 191 229.171 191.607 229.659 192.846C230.21 194.244 230.716 191.585 229.659 192.846C228.612 194.094 227.025 198.389 225.34 197.876C222.531 197.021 220.072 195.267 216.73 194.826C213.175 192.054 208.946 191.47 205.081 189.357C203.265 189.33 202.031 188.278 200.191 188.501C197.077 189.116 194.958 191.178 192.2 191.789C190.638 192.136 189.097 193.143 187.411 191.274C187.131 189.003 187.103 187.004 187.108 184.579Z" fill="#80181A"/>
<path d="M237.213 314.657C235.206 305.567 230.572 297.087 229.061 287.297C233.207 291.074 236.679 295.731 239.014 301.544C238.418 306.064 240.263 310.52 237.213 314.657Z" fill="#240D12"/>
<path d="M187.442 278.653C188.455 291.757 182.757 303.094 179.493 314.915C176.873 324.403 173.855 333.782 171.007 343.605C171 344 170.5 344 170.25 344C168.368 337.805 167.567 331.475 167.553 325.098C167.463 283.32 167.496 241.542 167.523 199.763C167.524 197.602 167.49 195.431 168.252 192.861C168.61 192.117 168.697 191.703 168.944 191.553C174.127 188.402 180.282 186.918 184.629 182.281C185.112 181.766 186.537 182.113 187.674 183.169C189.253 185.477 188.951 187.752 189.432 190.343C190.123 192.955 189.521 195.169 189.733 197.795C189.108 202.953 189.441 207.637 189.904 212.806C188.273 219.255 189.79 225.191 189.964 231.633C188.274 237.871 189.821 243.61 189.889 249.852C188.723 252.181 188.997 254.18 189.187 256.138C189.76 262.034 189.476 267.938 189.37 273.838C189.341 275.453 189.25 277.155 187.442 278.653Z" fill="#971B25"/>
<path d="M170.227 191.399C170.097 236.464 170.047 281.033 170 325.601C169.994 331.421 170.001 337.242 170.001 343.531C170 344 169.5 344 169.25 344C164.738 328.044 160.629 312.044 156.14 296.152C154.297 289.626 155.893 282.941 154.157 276.116C152.069 274.734 152.438 272.963 152.512 271.363C152.78 265.585 151.837 259.756 153.301 254.019C153.479 253.325 153.045 252.411 152.351 251.335C152.77 242.453 152.48 233.905 153.404 225.408C153.686 222.814 153.888 220.045 151.342 217.675C150.896 216.839 150.556 216.427 149.852 215.775C147.932 210.953 147.036 206.307 147.122 201.096C147.155 198.761 147.905 197.259 149.433 196.016C150.827 194.883 152.156 193.61 152.521 191.282C152.62 188.614 152.703 186.351 153.799 183.808C156.884 181.347 159.823 181.131 162.313 183.845C164.744 186.494 168.703 187.363 170.227 191.399Z" fill="#4B181B"/>
<path d="M337.548 150.961C339.721 151.076 341.441 151.135 343.58 151.097C344 151.75 344 152.5 344 153.625C335.301 155.083 327.181 158.378 318.784 160.613C312.419 162.308 305.922 163.523 299.741 165.9C298.519 166.37 297.035 166.315 296.965 168.505C296.724 169.967 296.009 170.71 294.938 170.693C286.493 170.557 278.965 174.333 271.04 176.361C267.946 177.153 264.581 176.84 261.416 178.783C253.302 180.886 253.338 180.853 259.044 187.15C260.71 188.989 263.391 190.71 260.631 193.997C254.908 194.717 249.789 193.309 244.662 191.878C240.54 190.728 236.456 189.06 232.215 191.814C231.003 192.602 229.319 192.048 227.516 191.587C221.59 188.73 220.949 181.108 226.133 177.767C228.339 176.344 230.317 175.108 229.546 171.663C229.674 169.357 230.999 168.356 232.88 167.375C237.788 168.633 242.108 167.4 246.375 166.24C253.227 164.377 259.816 161.556 266.926 160.631C268.187 160.466 268.877 159.465 270.071 158.465C282.481 156.336 293.925 151.82 306.452 149.969C310.04 151.282 313.131 151.26 316.555 150.858C323.352 150.061 330.246 150.424 337.548 150.961Z" fill="#821E2B"/>
<path d="M1 153.375C11.0797 153.338 21.129 152.761 31.6299 151.988C33.9684 148.583 36.897 149.79 39.5648 150.399C49.1033 152.575 58.3072 156.09 68.4129 157.605C70.2858 158.277 70.8036 159.951 72.7741 160.339C79.2839 161.624 79.836 163.243 76.3863 168.976C79.4534 170.694 82.8325 171.631 86.0663 172.916C88.4844 173.877 90.0911 175.301 89.0662 178.57C86.5832 180.889 83.8632 180.272 80.8037 180.131C77.5679 177.963 74.178 177.488 70.9216 176.675C62.7551 174.635 54.7277 172.067 46.4993 170.266C45.4954 170.046 44.618 169.666 44.0303 168.28C32.9317 163.536 21.2686 161.475 10.0112 158.017C7.32517 157.192 4.5429 156.68 1.40245 156.012C1 155.25 1 154.5 1 153.375Z" fill="#31121B"/>
<path d="M156.64 35.2743C161.584 24.2798 164.604 12.9793 167.97 1.39121C169.067 1 170.133 1 171.6 1C174.259 9.81306 177.543 18.2728 180.848 26.7266C181.57 28.5722 182.204 30.4517 182.95 32.6828C185.539 34.5343 184.363 36.4882 183.575 38.2612C180.578 45.0105 175.956 50.6572 170.806 56.2875C170.142 56.3899 169.873 56.4104 169.199 56.4166C165.569 55.7765 164.644 52.8069 163.04 50.6024C160.699 47.3851 158.589 43.9978 156.699 40.4897C155.85 38.914 154.693 37.2924 156.64 35.2743Z" fill="#3E1116"/>
<path d="M274.084 253.76C276.748 259.545 281.522 263.401 284.881 268.343C285.604 269.407 286.83 270.08 287.17 271.483C287.344 272.201 288.349 272.872 287.464 273.586C287.04 273.927 286.143 274.026 285.608 273.831C278.944 271.394 272.307 268.883 265.314 266.312C264.007 266.383 263.084 266.983 262.077 266.475C254.68 262.748 246.381 261.369 238.616 257.539C232.365 251.465 227.551 244.67 223.28 237.475C222.844 236.74 223.122 235.871 223.573 234.701C224.799 231.791 223.171 229.616 222.831 227.276C222.522 225.145 222.523 223.021 223.52 220.601C226.141 218.654 228.677 218.572 231.338 219.309C236.487 220.736 241.748 221.802 247.023 224.093C249.552 223.608 250.881 224.953 252.135 226.272C259.682 234.21 266.086 243.143 273.662 251.059C274.265 251.69 274.38 252.53 274.084 253.76Z" fill="#995F68"/>
<path d="M224.757 234.685C228.298 242.582 234.528 248.151 238.728 255.494C239.952 256.814 241.236 257.997 241.173 259.429C240.848 266.818 244.057 274.035 242.28 281.912C243.947 288.799 241.894 295.538 243.938 301.963C244.179 302.719 244.03 303.762 243.147 304.126C241.261 304.901 240.816 302.807 239.319 302.043C235.462 301.052 234.855 297.692 233.223 295.171C231.929 293.174 231.371 290.52 228.3 289.577C227.71 289.343 227.492 289.207 227.024 288.778C226.476 288.071 226.22 287.632 225.85 286.827C221.949 278.968 216.197 272.878 211.292 266.187C209.103 263.202 206.203 260.518 206.774 255.889C206.666 247.152 205.737 238.797 207.521 230.096C209.528 227.567 211.648 227.889 213.998 228.56C216.875 229.382 219.116 231.499 222.44 232.338C223.778 232.747 224.374 233.348 224.757 234.685Z" fill="#A72D3E"/>
<path d="M259.669 193.258C258.304 188.468 254.087 186.062 251.19 182.54C250.303 181.461 248.49 180.651 249.265 178.917C249.876 177.548 251.564 177.892 252.815 177.718C254.929 177.426 257.065 177.294 259.623 177.094C260.866 177.708 261.883 177.725 263.087 178.274C265.354 181.03 268.028 182.728 270.803 184.091C278.528 187.884 285.04 193.428 291.962 198.376C293.582 199.534 295.015 201.039 294.035 203.743C292.472 205.629 290.559 205.411 288.785 205.432C281.548 205.519 274.309 205.582 267.587 205.4C270.504 207.196 275.666 205.536 277.729 210.815C279.691 215.909 282.706 219.974 285.586 224.13C286.988 226.153 288.296 228.254 289.478 230.412C289.969 231.311 291.217 232.421 290.084 233.43C289.493 233.956 288.16 233.966 287.258 233.771C283.409 232.937 279.595 231.939 275.379 230.933C272.192 229.49 269.121 232.223 266.005 230.11C260.063 220.837 252.045 213.666 245.937 204.984C244.336 202.71 242.167 200.741 242.618 197.165C245.719 193.16 250.006 194.062 253.92 193.713C255.707 193.554 257.541 194.364 259.669 193.258Z" fill="#AD323D"/>
<path d="M242.58 282.136C238.818 274.137 239.134 265.405 238.908 256.26C247.715 258.479 256.935 260.17 264.812 265.981C267.811 276.116 270.658 285.999 273.503 295.883C273.85 297.086 275.036 298.448 273.569 299.47C272.281 300.367 271.067 299.343 269.961 298.576C262.6 293.471 255.268 288.322 247.837 283.321C246.409 282.361 245.111 280.001 242.58 282.136Z" fill="#4C141A"/>
<path d="M266.782 227.78C269.563 228.829 271.982 229.666 274.696 230.684C273.639 231.168 271.549 230.876 273.562 233.32C282.144 243.739 290.648 254.223 299.186 264.678C299.5 265.062 299.895 265.377 300.231 265.744C301.547 267.184 303.629 269.092 302.278 270.693C300.556 272.734 298.881 270.112 297.37 269.135C289.78 264.23 282.233 259.258 274.343 254.22C266.695 248.089 261.28 240.307 254.996 233.319C252.899 230.987 250.74 228.711 248.369 226.188C244.657 222.784 239.433 220.946 239.891 214.567C242.237 212.163 244.432 212.94 246.533 214.142C253.494 218.122 260.472 222.087 266.782 227.78Z" fill="#861A24"/>
<path d="M205.801 272.753C206.639 275.106 207.211 277.189 207.911 279.603C208.039 285.974 208.039 292.014 208.039 299.427C199.511 292.876 194.757 284.812 187.362 279.035C187.031 269.608 187.026 260.269 187.032 250.46C188.845 248.238 190.296 248.975 191.552 250.674C196.695 257.634 202.57 264.127 205.801 272.753Z" fill="#9A2B39"/>
<path d="M262.213 179.25C261.355 178.498 260.845 178.018 260.194 177.315C269.367 174.254 278.688 171.435 287.991 168.562C290.797 167.695 293.501 167.845 296.581 168.921C302.438 169.86 307.726 171.343 313.63 174.393C304.453 179.263 295.287 181.882 286.402 186.02C284.3 188.163 282.245 188.141 279.821 187.461C273.63 185.724 268.118 182.592 262.213 179.25Z" fill="#BB5D58"/>
<path d="M262.002 179.295C269.672 181.37 277.479 183.762 285.69 186.189C288.421 189.766 292.322 191.359 295.569 193.731C301.553 198.102 307.732 202.206 314.014 206.716C311.631 209.82 308.352 208.339 305.617 207.911C301.299 207.236 296.322 208.005 292.984 203.395C288.42 197.662 282.172 194.699 276.811 190.578C271.97 186.857 266.392 184.121 262.002 179.295Z" fill="#6B1922"/>
<path d="M292.459 202.974C299.736 204.21 306.281 206.842 313.756 207.054C316.608 211.412 312.433 209.828 311.23 209.855C302.484 210.055 293.731 209.958 284.981 209.985C282.847 209.992 280.674 209.761 278.272 210.899C271.529 208.548 264.525 207.749 258.313 204.716C258.362 204.158 258.411 203.599 258.461 203.041C269.64 203.041 280.82 203.041 292.459 202.974Z" fill="#260E12"/>
<path d="M109.167 288.654C106.008 292.97 103.064 297.071 100.176 301.212C99.4248 302.29 98.9191 303.91 97.3335 303.522C95.572 303.092 96.1467 301.302 96.2389 300.12C96.7389 293.715 97.3847 287.321 97.9202 280.508C96.3191 278.882 96.4089 277.117 96.6168 275.526C97.3881 269.624 97.2057 263.646 98.1805 257.35C98.0693 254.663 99.0539 252.771 100.34 251.038C104.346 245.639 107.932 239.911 113.028 234.868C117.87 231.259 123.173 229.554 128.358 227.595C129.782 227.057 131.19 226.68 132.868 228.028C136.876 235.186 136.03 242.601 135.99 250.322C137.037 252.975 136.293 254.918 135.007 256.791C130.206 263.783 125.019 270.5 120.24 277.509C118.248 280.431 115.091 282.089 112.172 284.566C111.917 284.854 111.918 284.925 111.882 284.925C110.995 286.076 109.903 287.061 109.167 288.654Z" fill="#9F2A3A"/>
<path d="M114.097 235.654C110.058 242.803 104.874 248.629 100.201 255.197C98.9137 257.676 97.1631 259.224 94.8137 259.964C88.7883 261.863 83.2986 265.529 76.3174 265.323C69.2457 267.461 62.5425 269.77 55.8322 272.059C55.0007 272.342 54.1191 273.647 53.2892 272.441C52.5527 271.37 53.2799 270.38 54.0669 269.389C57.4048 265.188 60.6241 260.893 64.0818 256.337C64.1888 255.791 64.1008 255.54 63.8684 254.917C63.6611 254.013 63.7282 253.499 64.1502 252.688C71.8069 244.885 78.1029 236.412 85.0164 228.472C87.2305 225.929 88.9849 222.732 93.1878 222.115C98.4126 220.56 103.295 219.158 108.198 217.831C110.579 217.186 112.979 216.595 115.752 218.021C117.694 220.132 116.822 222.181 116.586 224.221C116.395 225.882 115.539 227.505 116.323 229.646C117.173 232.407 114.661 233.391 114.097 235.654Z" fill="#D1737A"/>
<path d="M112.209 284.824C112.095 282.308 113.891 280.766 115.417 278.998C122.06 271.307 127.538 262.755 133.364 254.463C133.725 253.949 133.756 253.204 133.992 252.201C137.271 245.689 141.998 240.666 146.602 235.616C149.525 232.41 150.794 229.019 150.562 224.775C150.392 221.659 150.24 218.441 152.666 215.513C154.722 212.316 154.963 214.042 154.975 215.981C155.014 222.398 155.005 228.815 155 235.232C154.997 239.84 154.973 244.447 154.938 249.522C151.094 260.507 143.618 268.545 136.267 276.935C129.748 283.205 124.954 290.521 119.754 297.521C115.819 302.818 111.82 308.067 107.865 313.349C107.127 314.334 106.275 315.303 104.988 314.692C103.53 314 104.247 312.827 104.637 311.709C107.677 303.005 110.672 294.285 113.657 285.561C113.735 285.334 113.612 284.852 113.444 284.769C113.195 284.645 112.822 284.772 112.209 284.824Z" fill="#91182E"/>
<path d="M75.9296 265.529C83.1452 260.596 91.4835 258.842 99.6179 255.546C100.325 263.465 100.36 271.482 98.0033 279.709C89.1337 285.461 80.4104 290.834 71.6771 296.191C70.2983 297.037 68.7764 298.572 67.2068 297.317C65.3564 295.837 66.8412 293.853 67.4879 292.325C71.1091 283.769 72.6754 274.57 75.9296 265.529Z" fill="#3E1418"/>
<path d="M65.1667 255.03C65.0638 255.574 64.9407 255.805 64.4777 256.002C60.7612 255.81 58.6083 258.463 55.9722 260.038C52.0002 262.412 48.1397 264.971 44.226 267.442C42.9929 268.22 41.5569 269.61 40.2616 268.272C38.8535 266.818 40.6603 265.458 41.4442 264.459C48.4798 255.497 55.5964 246.596 62.8183 237.782C64.2861 235.991 65.1091 234.203 64.9331 231.55C64.4984 229.149 65.6406 228.184 67.2825 227.405C69.511 226.348 71.5655 224.975 73.9916 223.437C76.5527 223.744 78.5605 222.86 80.0422 221.685C83.2548 219.14 87.1018 217.854 90.5306 215.771C92.4297 214.618 94.5277 214.321 96.7909 216.183C98.9382 220.421 95.7928 221.687 93.0805 223.641C84.0765 232.643 76.6723 242.429 68.7584 251.779C68.1322 252.519 67.3596 253.135 66.329 253.905C65.7499 254.253 65.5107 254.516 65.1667 255.03Z" fill="#332226"/>
<path d="M43.6215 168.048C56.4883 168.919 68.1859 173.374 80.3852 177.203C80.8812 179.438 80.0168 180.889 77.9705 182.159C77.0759 182.695 76.5551 182.985 75.6395 183.497C74.9629 183.819 74.6736 183.907 73.9342 184.02C70.3263 182.879 67.9047 184.667 65.2367 185.893C62.1877 187.293 59.0406 189.767 55.2506 186.368C47.9737 183.238 40.9978 180.427 34.0666 177.51C32.9371 177.034 31.3421 176.684 31.2947 175.052C31.2461 173.379 32.8611 173.084 33.9774 172.54C37.0572 171.038 40.1951 169.656 43.6215 168.048Z" fill="#734554"/>
<path d="M75.2518 225.685C71.943 227.816 68.9963 229.782 65.2636 231.026C61.6129 232.078 58.3139 233.07 54.9666 233.855C53.9478 234.094 52.6874 234.975 51.7266 233.839C50.5738 232.475 51.8156 231.288 52.4453 230.29C56.5683 223.757 60.8049 217.296 65.0797 210.469C66.6287 206.332 70.2722 206.232 73.39 205.584C77.4306 204.743 81.5373 204.174 86.0512 203.52C90.3013 203.726 91.1464 205.558 89.2979 208.769C85.659 215.089 81.3462 220.861 75.2518 225.685Z" fill="#672E39"/>
<path d="M135.932 277.409C136.037 274.722 136.977 272.834 138.343 271.111C143.77 264.262 148.452 256.836 154.657 250.187C154.674 258.323 155.89 266.702 154.017 275.376C150.2 281.731 144.975 286.371 140.254 291.455C139.675 292.078 139.217 292.853 138.278 292.619C137.031 292.31 137.108 291.164 137.046 290.196C136.779 286.077 135.512 282.046 135.932 277.409Z" fill="#632336"/>
<path d="M54.8641 186.412C61.6035 186.41 66.9177 181.87 73.6393 180.996C76.3143 183.04 74.8289 184.48 73.1945 185.763C66.5824 190.953 59.9407 196.137 52.7221 200.44C50.8193 201.575 49.6211 202.933 48.1373 204.808C42.7146 207.644 36.8304 206.3 31.264 208.513C30.5684 208.772 30.2379 208.912 29.9187 208.889C28.589 208.796 26.873 210.827 26.0441 208.757C25.4624 207.305 27.5014 206.782 28.5042 206.075C35.9497 200.82 43.4679 195.669 50.916 190.418C52.3655 189.396 54.2252 188.725 54.8641 186.412Z" fill="#311E26"/>
<path d="M31.3682 208.77C35.031 203.982 41.3221 205.228 46.7889 203.014C48.5897 201.982 50.1918 201.223 51.7981 201.113C63.3133 200.323 74.8386 199.763 86.7162 201.729C87.4781 202.663 87.6123 203.306 87.2171 204.422C79.7389 205.791 72.9066 208.222 65.5344 210.062C62.273 208.381 59.0743 209.049 55.9959 209.003C47.9458 208.881 39.8938 208.882 31.3682 208.77Z" fill="#250E12"/>
<path d="M305.978 152.733C296.179 153.993 287.278 157.291 278.095 159.408C276 159.891 273.897 160.343 271.405 160.829C262.207 160.258 254.393 156.874 246.823 151.959C245.458 149.197 246.764 147.551 248.257 145.88C251.077 142.726 254.315 140.042 257.799 137.035C258.351 136.256 258.764 135.924 259.672 135.61C267.047 132.902 274.131 130.661 281.886 129.473C289.436 130.303 296.268 132.521 303.258 133.966C305.126 134.352 307.249 134.394 308.828 136.536C315.286 138.605 321.512 140.266 327.691 142.087C329.127 142.51 331.133 142.666 331.402 144.607C331.551 145.683 330.164 145.942 329.104 146.604C323.383 151.105 316.518 150.43 310.229 151.888C308.956 152.183 307.581 151.994 305.978 152.733Z" fill="#985963"/>
<path d="M282.465 131.598C275.207 133.553 268.208 135.27 260.83 137.011C258.302 136.125 256.176 135.777 253.738 135.716C250.122 135.625 246.181 135.531 242.851 132.608C241.807 126.276 246.109 122.558 248.978 118.34C249.805 117.125 250.938 116.113 251.443 114.207C253.149 111.589 255.764 111.283 258.068 110.463C268.091 106.897 278.186 103.532 288.535 99.7147C292.546 100.546 295.085 97.7494 298.231 96.9987C301.129 96.3071 303.862 94.9443 306.849 94.5859C308.853 94.3456 311.02 93.8641 312.37 96.5726C308.766 102.538 304.064 107.18 299.679 112.512C299.518 113.494 299.687 114.237 299.225 114.752C294.003 120.564 289.963 127.554 282.465 131.598Z" fill="#99454F"/>
<path d="M169.574 55.1276C174.043 47.6664 180.271 41.8322 182.947 33.4009C187.838 29.1376 189.9 23.193 193.69 18.5115C194.633 17.3465 195.115 15.6765 196.942 16.2126C198.699 16.728 197.944 18.4478 197.961 19.6264C198.05 26.0902 198.019 32.5558 198.075 39.4841C199.58 40.7518 200.168 42.0475 200.049 43.6406C199.288 53.8065 199.251 64.023 197.762 74.5473C192.621 78.6097 190.395 84.4934 185.995 89.0722C182.964 90.071 181.643 88.3862 180.466 86.4477C178.256 82.8084 175.743 79.3271 174.092 75.3912C173.426 73.8037 172.416 72.9356 170.66 72.0725C169.73 71.2563 169.021 70.7798 168.666 69.4948C168.766 64.535 167.74 59.9455 169.574 55.1276Z" fill="#9D5158"/>
<path d="M289.085 101.903C277.078 106.366 265.338 110.547 253.27 114.904C246.291 120.788 237.885 122.152 229.413 124.366C227.094 123.712 224.838 124.52 222.932 122.51C221.154 118.617 221.092 115.105 223.127 111.292C227.182 109.723 229.054 105.846 233.028 104.3C233.941 104.19 234.457 104.109 235.345 103.92C246.045 99.7711 256.906 97.1688 267.298 92.1963C268.127 91.8595 268.625 91.8239 269.82 92.248C275.126 92.9614 279.224 90.9094 283.461 89.6615C291.397 87.3242 299.245 84.686 307.508 82.171C311.04 84.5394 309.146 86.4574 307.198 88.1212C301.518 92.9704 295.864 97.8673 289.085 101.903Z" fill="#4B141A"/>
<path d="M282.597 131.892C286.699 124.577 292.233 118.235 299.225 112.862C310.697 112.898 321.834 112.927 332.97 113.037C334.535 113.053 336.693 112.355 337.425 114.274C338.231 116.385 335.918 116.939 334.688 117.852C326.314 124.063 317.892 130.208 309.282 136.63C300.033 137.077 291.733 133.333 282.597 131.892Z" fill="#5D151E"/>
<path d="M194.775 75.382C196.625 68.1244 196.363 61.114 196.851 54.1826C197.165 49.7099 197.121 45.2163 198.073 40.3721C202.327 31.2162 203.769 21.5144 207.69 12.684C208.176 11.5905 207.822 9.58939 209.784 9.91241C211.673 10.2234 210.912 12.0409 210.971 13.2271C211.696 27.8296 209.712 42.3682 209.824 57.4153C207.248 68.4166 203.455 78.5357 199.644 88.6539C198.558 91.5381 197.282 93.5366 193.585 91.1878C191.991 85.6748 192.206 80.6538 194.775 75.382Z" fill="#A02435"/>
<path d="M269.224 93.8008C262.043 98.438 253.955 99.9498 246.374 102.756C243.275 103.903 240.067 104.755 236.548 105.772C235.806 105.484 235.225 105.083 235.355 104.651C237.679 96.9609 241.537 90.1719 247.407 84.6169C247.884 84.165 248.666 84.3707 249.695 84.7428C258.316 82.9772 266.546 81.004 274.8 79.1393C275.796 78.9142 277.222 78.4274 277.83 79.8883C278.248 80.8944 277.699 81.7362 276.971 82.549C274.452 85.3628 272.459 88.5471 270.611 92.232C270.507 92.5743 270.645 92.8707 270.794 92.8025C270.642 93.354 270.054 93.4887 269.224 93.8008Z" fill="#C3545A"/>
<path d="M209.648 59.1711C213.418 54.6876 216.758 50.4307 220.229 46.2829C220.972 45.3951 221.018 43.3467 222.913 43.9661C224.438 44.4643 224.386 46.2723 224.541 47.3733C225.546 54.5584 226.269 61.7831 227.154 69.429C228.777 71.5094 228.539 73.0934 227.1 74.6774C225.285 76.676 223.612 78.8241 221.474 80.4933C219.26 82.2225 217.905 84.3695 217.443 87.5734C216.071 89.3824 214.636 89.7671 212.482 89.0079C208.235 79.2782 206.539 69.5664 209.648 59.1711Z" fill="#7A1925"/>
<path d="M209.977 58.6423C209.829 68.5135 211.522 77.92 213.1 87.7714C215.518 90.3837 213.888 92.3147 212.773 94.2909C211.593 96.3825 209.409 97.9332 209.166 101.048C204.415 104.201 200.144 107.922 193.806 105.562C192.42 100.532 191.34 95.8675 194.934 91.363C199.54 82.4045 202.586 73.1774 205.853 64.0335C206.613 61.9066 206.831 59.4328 209.432 57.9994C209.807 58.04 209.865 58.2095 209.977 58.6423Z" fill="#6F1517"/>
<path d="M250.063 84.5314C244.66 91.0918 240.082 97.8359 236.279 105.484C235.678 105.831 235.168 105.86 234.277 105.871C230.76 104.238 231.863 101.548 232.62 99.373C235.815 90.1954 238.705 80.8937 242.907 72.094C243.58 70.6839 244.391 69.3196 244.009 67.2467C248.352 60.3335 252.823 53.9221 260.593 50.8115C257.268 62.113 253.658 73.1292 250.063 84.5314Z" fill="#821D2B"/>
<path d="M260.952 50.8392C258.283 51.1608 257.555 53.4411 256.229 55.0129C252.966 58.8792 249.701 62.7434 246.197 66.8458C244.36 70.066 242.135 72.3985 239.263 74.2563C233.306 78.1099 227.485 82.1756 221.493 85.9759C219.938 86.9621 218.339 88.7215 215.897 86.7686C217.078 81.7299 220.852 78.5879 223.755 74.8377C224.856 73.4153 225.946 71.9844 227.133 70.2103C237.769 63.8999 247.341 56.4579 257.532 49.9581C258.732 49.1932 260.564 46.5332 260.952 50.8392Z" fill="#34111A"/>
<path d="M38.9397 113.371C34.1775 107.169 29.365 101.337 24.167 95.037C33.381 94.1532 40.1116 100.039 48.5497 100.004C50.2039 99.3896 51.3912 99.2898 52.783 99.7487C73.1642 106.469 93.4897 113.357 113.901 119.986C114.536 120.192 115.047 120.654 115.872 121.354C117.802 124.451 120.053 127.056 118.409 131.044C116.772 132.91 115.062 133.004 113.155 132.775C104.261 131.707 95.8293 135.402 87.0297 135.385C85.7178 135.383 85.0985 136.439 83.9648 137.48C82.5952 138.16 81.5568 138.573 80.2973 139.472C76.4464 141.027 73.1464 139.716 69.8827 138.767C65.4785 137.485 61.1032 136.113 56.234 135.029C52.277 128.309 46.4186 123.658 41.547 118.165C40.3757 116.845 38.5625 115.948 38.9397 113.371Z" fill="#BE474E"/>
<path d="M55.5598 132.42C63.9457 133.223 71.1164 137.513 79.9352 137.964C80.9802 137.796 81.2367 137.755 81.8794 137.775C87.325 141.131 92.4626 144.359 93.1768 151.472C85.9669 156.981 77.991 159.44 69.0278 160.299C59.2572 159.013 50.3723 155.694 41.2025 153.517C38.4757 152.869 35.6833 152.498 32.5043 151.99C24.6694 149.963 17.2068 148.088 9.8768 145.791C8.67075 145.413 6.02159 145.884 6.13162 143.522C6.26077 140.75 8.65673 142.349 10.0172 142.017C16.7462 140.374 23.497 138.82 30.5877 137.038C31.6445 135.621 32.7011 134.934 34.0893 134.671C39.6212 133.62 45.0721 132.183 50.6252 131.224C52.3178 130.932 53.866 130.922 55.5598 132.42Z" fill="#D07276"/>
<path d="M156.669 34.908C159.394 42.396 164.698 48.0026 168.79 54.723C170.077 59.3469 169.219 63.7802 169.506 68.6062C170.884 72.5809 170.451 75.8877 168.313 79.0201C165.533 83.0935 163.224 87.5021 159.341 91.2293C155.339 91.6636 153.463 88.9547 150.963 86.593C150.5 86.2019 150.317 86.0485 149.873 85.6615C149.449 85.2678 149.287 85.1077 148.897 84.7006C148.386 84.1178 148.119 83.7706 147.682 83.1515C147.366 82.7245 147.239 82.5552 146.917 82.1337C146.591 81.7126 146.46 81.5436 146.133 81.1164C145.807 80.6812 145.677 80.5041 145.367 80.0437C145.085 79.5545 144.983 79.3486 144.734 78.8249C144.482 76.2837 142.332 75.4234 141.176 73.4142C139.318 69.2106 139.813 65.0924 139.457 61.0568C138.2 46.7922 142.575 32.8223 141.525 18.5826C141.444 17.4906 141.854 16.6276 143.587 16.721C148.144 22.8628 152.25 28.8095 156.669 34.908Z" fill="#C8565C"/>
<path d="M115.156 122.394C108.083 121.449 101.971 118.778 95.6741 116.766C81.6383 112.282 67.6628 107.608 53.6895 102.932C52.1593 102.42 50.8042 101.384 49.1681 100.3C40.6896 94.2951 32.4187 88.5712 24.1184 82.8903C23.4221 82.4138 22.4424 82.0193 22.7417 81.1315C23.2564 79.6041 24.6187 80.0921 25.6866 80.4085C32.5069 82.4294 39.3098 84.5089 46.1228 86.5545C52.1395 88.3609 58.1619 90.1483 64.5693 91.9481C68.2847 90.7006 70.8876 94.5957 74.636 93.3045C81.7948 97.3198 89.2793 99.4933 96.6064 102.003C103.302 104.296 109.404 107.995 116.473 110.339C117.445 113.925 118.591 117.131 117.4 120.921C116.738 121.803 116.229 122.148 115.156 122.394Z" fill="#641418"/>
<path d="M84.6532 52.2696C93.0554 55.7033 99.9684 61.1782 107.441 65.7408C108.989 66.6859 110.416 69.0884 112.607 67.6901C114.53 66.4624 113.824 64.0822 113.944 62.1353C114.292 56.5244 114.627 50.9127 114.99 45.3028C115.063 44.1775 114.878 42.8127 116.303 42.3787C117.609 41.9808 118.559 42.8889 119.274 43.7882C122.356 47.6639 125.365 51.5975 128.651 55.7179C129.953 55.9626 130.69 56.49 131.315 57.8471C132.796 68.2529 132.755 78.2342 132.092 88.6603C130.581 92.4868 128.333 91.6652 125.968 90.2887C116.255 84.6339 107.098 78.1315 97.8541 71.7651C96.5604 70.8741 95.5437 69.5799 93.3803 69.5531C88.5413 65.6075 86.2065 60.3439 83.7409 55.1908C83.3702 54.4161 83.4535 53.2549 84.6532 52.2696Z" fill="#5D151D"/>
<path d="M55.9505 132.359C47.811 133.866 40.0628 136.904 31.3657 136.965C23.0862 130.976 15.2351 125.113 7.38971 119.242C5.7191 117.992 2.85572 116.922 3.69003 114.615C4.50522 112.361 7.49932 113.198 9.58525 113.178C19.0751 113.087 28.566 113.102 38.5233 113.041C45.6991 118.408 52.0254 124.157 55.9505 132.359Z" fill="#3A141C"/>
<path d="M130.22 58.3151C129.721 57.4625 129.444 56.9527 129.035 56.1844C129.338 41.5064 128.301 27.1453 127.211 12.7855C127.099 11.3183 126.701 9.36484 128.51 8.94542C130.355 8.51749 130.808 10.5615 131.318 11.8586C134.336 19.536 136.204 27.6423 141.017 35.116C141.017 29.8643 140.906 24.6087 141.093 19.3637C141.141 18.0116 140.018 14.7792 143.899 16.6281C142.408 17.2801 142.07 18.4664 142.081 19.9193C142.216 37.0292 142.335 54.1392 142.491 71.249C142.497 71.8891 142.832 72.5263 143.151 73.5601C143.458 75.049 143.813 76.154 142.8 77.4985C139.458 79.1395 138.383 76.8769 137.197 74.8684C134.194 69.7796 132.054 64.3282 130.22 58.3151Z" fill="#31282E"/>
<path d="M115.204 110.589C105.243 109.045 96.4931 104.443 87.2199 101.369C82.99 99.9672 78.6478 98.6976 74.5318 96.0676C71.6768 93.2754 67.0731 92.5091 66.8882 87.3702C66.1946 84.77 62.5758 83.0666 64.3429 80.7642C65.8714 78.7728 68.9214 80.312 71.334 80.8837C77.5689 82.3611 84.0185 82.8399 90.5261 84.8743C93.6371 82.9487 94.5434 85.5214 96.0463 86.8594C98.3157 88.8797 98.8089 92.7241 102.934 93.2585C106.365 96.8189 108.624 100.926 111.722 104.42C112.751 105.581 113.751 106.669 115.271 107.8C115.818 108.842 115.813 109.578 115.204 110.589Z" fill="#683F4E"/>
<path d="M102.819 95.1149C97.278 93.7342 95.1178 88.6942 91.194 85.0711C87.8508 74.7561 84.7271 64.6564 81.7762 54.5065C81.1642 52.4015 80.0361 48.9762 84.8316 51.7995C85.3067 56.5035 88.912 59.1255 90.8517 62.6632C91.7155 64.2386 92.5785 65.8144 93.6029 67.6796C96.1972 69.7567 97.6294 72.1967 98.5552 75.0319C100.099 79.7594 101.794 84.4386 103.222 89.2024C103.774 91.0419 104.769 92.9782 102.819 95.1149Z" fill="#2B181D"/>
<path d="M223.296 233.79C218.634 232.646 214.28 231.287 209.552 229.867C202.364 231.29 192.006 224.902 189.088 217.587C188.561 216.265 188.324 214.821 187.297 213.299C187.07 208.281 187.081 203.566 187.137 198.381C188.332 196.276 189.818 196.41 191.491 196.973C194.248 197.902 197.001 198.851 200.178 199.696C208.452 209.418 215.541 219.646 223.131 229.491C224.037 230.665 224.431 232.101 223.296 233.79Z" fill="#491E1E"/>
<path d="M187.04 213.464C187.379 213.08 187.89 213.064 187.993 213.261C192.441 221.786 200.457 225.692 208.938 229.561C208.549 238.64 209.78 247.542 208.082 256.744C207.528 256.983 207.111 256.82 206.394 256.507C204.833 256.031 203.353 256.194 202.465 254.991C197.101 247.725 190.43 241.315 187.464 232.054C187.222 225.797 187.121 219.864 187.04 213.464Z" fill="#CD494D"/>
<path d="M187.249 232.217C194.368 239.077 199.688 247.753 205.962 256.076C203.901 261.617 207.115 266.852 206.117 272.565C200.951 269.874 198.899 264.205 195.256 259.843C192.645 256.719 190.91 252.89 187.335 250.143C187.087 244.229 187.132 238.467 187.249 232.217Z" fill="#A82D3E"/>
<path d="M200.105 200.682C195.149 202.597 191.781 199.147 187.521 198.014C187.143 195.896 187.104 193.881 187.112 191.434C191.217 189.366 195.274 187.73 199.685 185.99C202.419 187.188 202.276 189.721 202.918 192.289C202.573 194.624 202.215 196.513 201.443 198.732C201.228 199.701 200.939 200.166 200.105 200.682Z" fill="#491E1E"/>
<path d="M114.279 235.917C112.852 234.563 113.579 233.097 114.06 231.308C117.005 222.789 123.206 216.9 128.688 210.621C131.831 207.02 134.409 202.983 138.108 199.37C141.785 198.406 145.106 196.483 148.712 199.47C149.653 204.571 150.334 209.309 151.02 214.47C151.299 216.143 151.353 217.24 150.686 218.539C147.402 224.935 138.888 230.197 132.375 229.23C126.224 231.287 120.423 233.539 114.279 235.917Z" fill="#6E1E1E"/>
<path d="M142.63 173.682C144.754 181.391 147.01 183.429 154.552 184.195C154.959 186.548 154.967 188.84 154.966 191.566C152.514 193.956 150.303 192.991 148.148 191.448C145.598 189.621 142.878 188.642 139.366 189.733C133.017 192.402 126.885 194.684 120.614 197.662C118.496 198.647 116.896 200.158 114.384 198.915C111.787 196.235 113.719 193.896 114.139 191.136C115.823 184.197 113.052 180.106 107.006 177.867C103.979 176.745 104.873 174.709 105.94 172.35C107.825 170.638 110.151 171.361 112.285 170.095C119.995 172.302 127.484 171.227 134.882 171.54C137.457 171.65 140.251 171.057 142.63 173.682Z" fill="#80181A"/>
<path d="M132.1 229.441C139.493 226.24 146.132 222.311 150.813 215.158C151.452 214.978 151.879 215.063 152.626 215.214C152.932 215.946 152.774 216.646 152.927 217.271C157.05 234.163 144.07 242.007 134.377 251.8C133.421 244.505 132.798 237.176 132.1 229.441Z" fill="#C5494E"/>
<path d="M138.524 188.434C141.113 185.048 143.608 185.279 146.553 187.315C148.992 189.002 151.721 190.269 154.639 191.861C155.894 196.547 151.755 197.261 149.194 199.584C145.512 199.65 142.255 200.774 138.502 201.455C134.25 201.15 135.171 198.196 134.965 195.38C135.287 192.469 136.492 190.474 138.524 188.434Z" fill="#491E1E"/>
<path d="M201.296 193.149C200.098 190.919 200.177 188.798 200.065 186.296C201.743 185.254 203.133 186.157 204.84 186.99C207.392 191.434 211.537 192.28 216.145 192.916C218.559 192.875 220.276 193.885 222.1 194.61C223.71 195.25 225.458 197.026 227.062 195.797C228.737 194.513 226.947 192.445 227.027 190.341C227.825 189.898 229.009 190.157 229.414 189.71C234.23 184.395 239.355 187.924 244.351 189.113C249.328 190.297 254.261 191.667 259.616 192.973C258.358 195.955 255.197 195.171 252.657 195.865C250.006 196.59 247.277 197.027 244.258 197.802C242.595 200.953 239.651 200.791 237.165 201.483C235.253 202.016 233.21 201.978 231.051 202.987C227.624 204.821 225.629 201.585 222.995 201.61C226.363 207.294 227.709 213.521 225.534 220.491C224.064 225.323 227.222 229.878 225.118 234.788C224.368 234.868 223.88 234.623 223.19 234.192C217.221 224.233 208.946 216.295 202.998 206.658C201.957 204.971 200.99 203.238 199.849 201.176C199.833 200.502 199.957 200.18 200.155 199.61C201.003 197.461 203.743 195.979 201.296 193.149Z" fill="#6E1E1E"/>
<path d="M231.343 171.625C221.531 172.478 211.78 171.137 201.751 173.025C200.696 170.1 201.942 167.975 204.193 166.15C206.837 164.006 208.891 161.441 209.046 157.422C210.015 155.813 211.164 154.819 212.767 154.805C223.241 154.715 233.753 153.424 244.576 155.876C246.431 157.136 246.728 158.659 245.611 159.896C242.46 163.382 239.82 167.571 234.354 168.854C233.129 169.783 232.304 170.578 231.343 171.625Z" fill="#4B181B"/>
<path d="M234.346 169.114C236.972 164.895 241.245 162.068 244.904 158.136C245.198 155.833 241.772 155.654 242.695 152.765C243.606 150.597 244.788 149.52 247.233 150.391C255.071 154.255 263.286 156.151 270.754 160.629C261.833 164.771 252.087 166.919 242.582 169.807C240.074 170.568 237.299 170.197 234.346 169.114Z" fill="#D15352"/>
<path d="M112.161 171.728C110.538 172.549 109.159 173.113 107.491 173.81C104.319 175.385 104.448 176.952 107.284 178.091C109.751 179.081 111.575 180.032 109.306 183.136C103.03 185.35 97.7389 182.006 91.7353 181.063C90.1044 180.128 89.1323 179.151 88.6703 177.271C81.9957 174.253 75.4519 171.635 68.6755 168.924C70.9262 166.108 74.5953 167.047 76.8375 164.546C74.8057 162.114 71.3266 162.754 68.8835 160.634C75.6675 155.88 83.9467 154.478 91.8075 151.037C96.0108 149.026 97.2084 153.176 99.9667 154.545C100.596 155.746 101.189 156.536 101.784 157.735C101.954 160.113 103.576 160.726 104.897 161.844C108.028 164.494 112.746 166.073 112.161 171.728Z" fill="#CA494D"/>
<path d="M88.1464 177.006C89.4928 176.907 90.2747 177.273 90.9649 178.303C92.6818 180.904 91.1472 182.386 89.8035 184.201C87.8862 186.79 84.1635 187.767 83.5828 191.712C86.1505 194.875 89.7789 193.526 92.789 194.475C95.0637 195.192 97.3974 195.411 97.6069 198.89C95.3749 204.465 93.0608 205.481 87.2649 203.466C73.9299 203.172 61.0074 203.097 47.6311 202.969C48.96 199.468 52.5498 198.093 55.3567 195.829C61.417 190.94 68.3579 187.205 73.985 181.346C74.0294 181.007 73.9777 180.988 73.9788 181.016C74.4867 180.464 75.2669 180.518 76.229 180.099C77.734 179.275 78.9042 178.57 80.3728 177.649C83.0456 177.668 85.4176 177.845 88.1464 177.006Z" fill="#9C3242"/>
<path d="M169.623 70.0126C168.453 65.6513 169.058 60.7741 168.968 55.456C169 54.9869 169.422 54.8527 169.639 54.8086C169.818 59.6967 169.78 64.6289 169.623 70.0126Z" fill="#884348"/>
<path d="M225.69 220.792C224.902 219.658 224.155 218.571 224.167 217.493C224.249 209.976 222.853 203.037 216.684 197.536C221.514 198.01 225.62 199.329 229.707 201.8C230.982 201.862 232.181 201.618 232.789 202.443C235.683 206.373 240.927 208.585 241.319 214.577C242.34 219.086 246.427 221.348 248.036 225.628C240.779 224.258 233.43 222.551 225.69 220.792Z" fill="#CA494D"/>
<path d="M228.965 286.721C228.821 286.685 228.589 286.336 228.185 285.722C228.301 285.774 228.589 286.091 228.965 286.721Z" fill="#240D12"/>
<path d="M241.517 214.973C237.177 211.132 233.509 207.063 230.141 202.3C233.622 198.21 238.59 198.865 243.521 198.02C251.569 207.8 259.203 217.586 266.99 227.681C259.908 225.946 254.08 221.23 247.632 217.693C245.767 216.67 244.056 215.347 241.517 214.973Z" fill="#671618"/>
<path d="M137.422 194.389C137.687 196.698 137.083 198.726 137.975 201.124C137.276 206.747 132.793 209.322 129.752 212.913C124.745 218.825 120.451 225.347 114.415 230.798C113.6 227.29 114.393 223.652 114.575 219.593C110.929 212.263 113.64 202.575 120.936 197.182C126.337 194.849 131.444 193.004 137.422 194.389Z" fill="#491E1E"/>
<path d="M122.081 197.548C115.661 203.333 116.137 211.165 114.66 218.779C107.357 220 100.773 223.374 93.1196 223.893C93.7932 221.788 94.8961 219.683 96.1012 217.234C94.8696 215.33 95.9456 214.192 96.8552 212.993C99.5419 209.452 102.26 205.908 105.515 202.894C106.898 201.613 107.797 200.208 108.86 198.338C110.869 197.387 112.551 196.355 114.81 197.733C116.508 197.315 117.853 196.705 119.516 196.073C120.821 196.012 121.758 196.073 122.081 197.548Z" fill="#C1494E"/>
<path d="M65.2817 255.115C65.2813 255.004 65.5145 254.739 65.8753 254.238C65.8405 254.322 65.6779 254.641 65.2817 255.115Z" fill="black"/>
<path d="M109.798 199.565C106.421 206.229 101.593 211.397 96.4642 216.712C90.8693 217.19 87.0296 220.977 82.3617 222.838C80.0922 223.742 77.9008 224.843 75.3123 225.91C76.9095 220.525 81.4125 216.773 84.2482 211.929C85.4932 209.802 88.3127 208.31 87.1279 204.997C86.9135 204.489 86.892 204.134 86.8615 203.513C90.3695 202.929 93.6699 202.142 96.0535 198.771C96.7897 195.811 98.8863 195.701 100.888 196.025C103.962 196.523 107.254 196.592 109.798 199.565Z" fill="#6C1A23"/>
<path d="M243.734 130.656C247.639 133.08 251.826 132.951 255.764 133.859C257.498 134.259 259.389 134.267 260.327 136.668C260.165 137.271 259.877 137.505 259.33 137.839C251.985 141.036 244.917 144.191 236.688 144.673C233.711 142.856 230.74 142.124 228.004 140.856C221.678 137.924 220.87 133.44 226.047 127.609C232.501 126.377 238.123 127.562 243.734 130.656Z" fill="#6E1F1F"/>
<path d="M236.537 143.194C244.11 141.227 250.848 137.717 258.758 137.76C255.344 141.98 251.618 146.021 247.736 150.36C246.604 151.427 245.627 152.197 244.413 153.171C242.871 154.256 241.398 154.892 240.134 153.621C237.775 151.25 234.151 150.003 233.49 145.779C234.03 144.166 234.863 143.477 236.537 143.194Z" fill="#3C0B0D"/>
<path d="M244.107 130.74C238.242 132.09 232.973 128.967 226.878 129.254C223.445 126.118 225.451 124.183 228.561 122.239C237.004 120.601 244.28 116.806 252.557 115.058C251.128 120.806 246.608 125 244.107 130.74Z" fill="#CF5351"/>
<path d="M169.458 70.8171C169.504 70.4641 169.535 70.5333 169.569 70.5451C170.195 70.2151 170.789 69.8733 171.672 69.36C173.678 72.5098 174.392 76.1013 174.431 79.7776C174.564 92.0917 174.55 104.407 174.43 116.722C174.407 118.985 174.725 121.454 172.243 123.51C163.917 127.71 155.908 131.375 147.101 132.876C146.665 132.95 146.298 133.433 145.599 133.907C145.057 134.039 144.815 133.988 144.29 133.7C142.355 130.08 144.018 127.744 146.688 126.071C148.081 125.198 149.521 124.527 150.62 122.776C152.484 120.566 152.235 118.303 151.993 115.632C153.197 111.785 152.614 108.319 151.988 104.908C151.339 101.363 151.733 97.957 152.802 94.5951C153.467 92.5039 154.337 90.5077 157.387 90.1128C161.876 83.8211 166.629 78.1048 169.458 70.8171Z" fill="#4D191C"/>
<path d="M172.249 123.873C171.902 105.914 171.956 88.0014 171.986 69.6388C177.265 74.5068 179.784 81.6896 184.491 87.7936C189.186 88.6716 190.023 92.1114 190.345 95.6912C190.842 101.22 190.329 106.758 190.283 112.652C192 114.847 191.133 117.241 192.124 119.585C193.14 121.823 191.248 123.151 191.246 125.215C191.115 126.738 190.527 127.792 190.31 129.286C190.073 129.803 189.941 129.992 189.579 130.437C186.19 131.213 183.533 130.341 181.361 127.941C179.039 125.376 176.063 124.156 172.249 123.873Z" fill="#961B25"/>
<path d="M189.412 114.277C187.344 109.781 188.125 105.266 188.223 100.863C188.322 96.4103 187.744 92.3382 184.867 88.3779C187.182 83.1964 190.166 78.7591 194.746 75.145C195.102 80.0635 195.173 85.1663 195.337 90.747C195.385 95.4802 195.34 99.7354 195.355 104.444C196.749 109.232 194.425 113.195 189.412 114.277Z" fill="#C8444A"/>
<path d="M215.458 86.6662C225.527 80.1015 235.427 73.7102 245.642 67.2009C245.549 74.853 241.268 81.3944 239.087 88.606C237.423 94.1069 234.68 99.2733 233.924 105.463C231.449 107.853 229.003 109.853 226.27 112.038C221.726 112.049 222.786 108.812 222.7 106.357C222.61 103.797 224.397 101.267 222.588 98.4436C220.662 96.6631 219.561 98.5059 218.226 98.9071C214.952 99.8908 212.065 103.009 208.079 100.362C208.099 95.6192 211.42 92.6365 213.029 88.5207C213.861 87.7457 214.575 87.2926 215.458 86.6662Z" fill="#A62C3D"/>
<path d="M223.809 94.3942C227.528 96.3915 225.734 99.7982 225.761 102.723C225.788 105.646 224.411 108.548 225.773 111.87C223.261 114.781 224.15 118.105 224.098 121.663C224.839 123.563 224.261 124.724 223.039 125.436C219.555 127.465 216.268 130.032 211.553 129.869C208.267 127.429 207.998 125.123 210.746 123.162C208.084 125.713 203.866 127.718 203.089 132.989C199.63 135.785 199.086 131.498 196.673 130.786C195.903 130.221 195.63 129.762 195.495 128.817C195.307 127.035 195.855 125.768 196.122 124.053C197.024 120.454 197.955 117.337 200.055 114.616C201.36 112.924 201.779 110.738 201.564 108.147C204.138 103.664 206.137 103.365 208.07 107.218C209.527 110.123 210.6 109.265 211.878 107.486C215.281 102.747 219.072 98.3784 223.809 94.3942Z" fill="#6E1E1E"/>
<path d="M208.24 128.481C214.273 127.511 219.154 125.049 224.363 122.354C226.445 122.05 228.203 121.986 230.322 122.002C228.767 124.069 228.349 126.551 227.619 129.393C224.634 138.1 224.79 138.385 233.608 141.801C235.636 142.587 237.615 143.469 240 144.477C239.634 145.28 238.884 145.913 237.808 146.74C236.615 147.836 235.373 148.306 234.254 147.791C225.32 143.675 215.667 145.581 206.302 145.073C203.174 144.904 199.734 145.637 196.98 142.637C196.842 138.586 195.085 135.726 191.674 133.155C190.978 132.443 190.816 131.951 191.212 131.064C194.196 130.2 194.904 132.906 197.343 133.325C200.055 130.077 202.613 127.161 208.24 128.481Z" fill="#80181A"/>
<path d="M269.281 93.9168C269.427 93.4659 269.866 92.9416 270.624 92.5758C270.486 93.104 270.03 93.4737 269.281 93.9168Z" fill="black"/>
<path d="M223.69 94.2255C220.739 102.342 214.3 108.293 208.832 114.905C206.774 117.394 206.301 114.895 206.053 113.199C205.4 108.73 205.409 108.729 204.138 107.823C201.209 111.923 199.225 116.448 195.329 119.527C193.976 120.596 192.865 122.329 190.361 121.172C189.699 118.939 189.373 116.905 189.028 114.487C191.395 111.509 193.37 108.625 195.24 105.219C199.56 103.821 203.56 102.367 207.646 100.165C213.087 98.1147 218.215 96.2176 223.69 94.2255Z" fill="#7A1E25"/>
<path d="M145.22 134.09C144.192 136.409 143.033 138.714 143.097 141.786C140.266 145.023 136.701 145.386 132.966 145.503C126.345 145.709 119.605 144.606 112.715 147.198C110.036 146.473 107.328 146.838 105.599 144.147C105.167 141.074 106.343 139.255 108.837 138.403C112.395 137.189 115.048 134.925 117.242 131.498C116.662 128.481 115.871 125.76 114.884 122.739C114.969 122.048 115.249 121.656 115.778 121.004C118.184 119.414 120.175 119.837 122.047 121.337C123.157 122.227 124.432 122.533 126.229 122.489C130.96 124.776 135.267 127.126 139.785 128.974C142.087 129.916 143.414 131.453 144.743 133.748C144.996 134.032 145.142 134.091 145.22 134.09Z" fill="#80181A"/>
<path d="M106.917 141.671C107.775 144.02 109.372 144.724 111.626 145.013C112.249 145.463 112.642 145.897 112.584 146.368C112.141 149.958 103.432 156.891 99.121 156.656C96.7679 154.701 94.781 152.929 92.4821 151.043C89.3245 146.412 85.4421 142.864 81.1776 139.215C80.7781 138.819 80.6285 138.647 80.2218 138.251C79.9648 138.027 79.986 138.022 79.9814 138.036C79.971 137.003 78.3176 135.757 80.6609 134.926C88.1541 134.68 95.0236 136.379 101.851 138.339C103.76 138.887 105.724 139.333 106.917 141.671Z" fill="#4C1013"/>
<path d="M107.334 141.936C98.4008 140.328 89.9411 138.011 81.2749 135.106C92.7438 132.776 104.238 128.087 117.008 131.102C119.41 135.222 117.935 137.616 113.928 139.021C111.779 139.774 109.745 140.853 107.334 141.936Z" fill="#6E1F1F"/>
<path d="M80.0733 138.234C80.3091 138.074 80.5759 138.243 80.8464 138.762C80.6352 138.867 80.3865 138.684 80.0733 138.234Z" fill="#BE474E"/>
<path d="M157.555 89.7636C154.535 94.7167 153.758 99.9171 154.606 105.583C155.068 108.67 154.853 111.858 154.893 115.453C151.794 117.364 150.196 115.004 148.008 113.158C144.945 110.315 141.728 108.055 141.208 103.4C139.887 95.2513 140.901 87.4278 140.065 79.6889C139.967 78.7742 140.592 78.1712 141.601 77.3566C142.297 76.2484 142.598 75.3868 143.094 74.2402C145.046 74.477 145.942 75.8592 146.844 77.6578C147.22 78.1748 147.447 78.4175 147.845 78.8423C148.023 79.0166 147.987 79.0137 147.985 78.9959C148.237 79.2498 148.511 79.5006 149.044 79.8741C149.463 80.1477 149.629 80.2935 149.889 80.5815C150.336 81.2662 150.492 81.8872 150.818 82.7689C151.021 83.018 150.982 83.017 150.983 82.9976C151.232 83.2419 151.496 83.4878 151.997 83.8736C153.914 85.8775 155.611 87.7237 157.555 89.7636Z" fill="#C6444A"/>
<path d="M150.948 82.7098C150.728 82.4581 150.436 81.8982 150.07 81.0229C150.29 81.2723 150.583 81.837 150.948 82.7098Z" fill="#AD323D"/>
<path d="M147.869 78.8198C147.767 78.8027 147.529 78.5711 147.146 78.1309C147.228 78.1676 147.471 78.3952 147.869 78.8198Z" fill="#AD323D"/>
<path d="M152.027 83.8375C151.932 83.8088 151.647 83.5864 151.173 83.171C151.268 83.2 151.552 83.4219 152.027 83.8375Z" fill="#AD323D"/>
<path d="M149.074 79.8336C148.982 79.7997 148.682 79.5816 148.182 79.1708C148.276 79.2019 148.57 79.4257 149.074 79.8336Z" fill="#AD323D"/>
<path d="M143.237 103.803C144.647 106.836 146.641 109.072 148.719 111.632C148.622 113.14 149.219 114.475 148.045 115.84C145.491 117.03 143.594 116.367 141.616 114.062C141.682 117.86 143.535 120.686 143.358 123.855C143.113 128.247 141.138 129.647 137.177 127.714C132.889 125.621 128.832 123.086 125.562 119.924C127.245 121.72 127.245 121.72 126.371 124.706C122.654 124.267 119.781 122.376 116.345 120.922C115.675 117.742 115.324 114.74 114.956 111.304C114.636 110.348 114.333 109.827 113.89 109.037C111.89 104.68 110.242 100.546 110.664 95.9053C111.077 91.3644 112.834 90.0727 117.216 91.4657C122.397 93.1129 127.315 95.451 132.725 97.6803C136.753 99.1177 139.838 101.332 143.237 103.803Z" fill="#6C1E1F"/>
<path d="M133.338 99.713C127.959 98.1128 122.929 96.4055 118.041 94.3619C113.993 92.6698 112.821 94.3528 113.118 98.0494C113.382 101.341 114.406 104.573 113.805 108.348C109.477 105 104.843 101.539 102.634 95.6624C99.6524 86.5256 96.7825 77.6347 93.8383 68.3566C96.4357 67.925 98.5106 69.3835 100.598 70.7476C110.218 77.0339 119.818 83.3491 129.717 89.8307C134.481 91.4156 135.909 95.0251 133.338 99.713Z" fill="#9B333D"/>
<path d="M133.22 100.164C133.169 96.5519 131.65 93.6277 130.173 90.3267C130 79.6435 129.991 69.2796 129.99 58.444C133.755 60.5688 134.638 64.9991 136.775 68.6263C138.349 71.2967 139.235 74.3695 141.735 76.8806C143.766 85.6702 142.409 94.4208 143.594 103.485C139.7 104.299 136.317 103.147 133.22 100.164Z" fill="#3E1116"/>
<path d="M201.182 141.25C208.282 140.875 215.361 141.146 222.417 140.862C226.951 140.679 230.86 141.437 234.295 145.021C237.313 148.11 240.072 151.003 243.824 153.278C244.325 154.852 246.288 155.731 245.34 157.698C242.032 156.175 238.643 156.934 235.376 156.903C226.918 156.821 218.458 156.925 209.537 156.998C208.768 153.728 207.036 151.177 204.487 149.263C201.872 147.3 200.722 144.871 201.182 141.25Z" fill="#951B25"/>
<path d="M98.7312 156.689C103.882 153.843 107.225 149.111 111.78 145.319C113.782 143.365 115.955 142.994 118.372 142.951C126.316 142.813 134.258 142.512 142.632 142.226C143.305 145.213 142.189 147.645 139.89 149.618C137.241 151.892 135.767 154.749 135.825 158.72C134.596 160.675 132.95 161.294 131.061 161.347C122.647 161.584 114.232 161.621 105.82 161.323C103.647 161.246 101.614 160.404 99.2152 159.224C98.7509 158.297 98.7292 157.601 98.7312 156.689Z" fill="#941B25"/>
<path d="M98.9648 159.28C110.814 158.996 122.855 158.999 135.346 159.065C136.205 161.882 137.829 163.914 139.912 165.538C142.469 167.533 143.567 170.004 143.003 173.605C135.195 174.01 127.442 173.99 119.69 174.012C117.183 174.018 114.733 173.887 112.253 172.179C108.393 167.096 103.119 164.006 98.9648 159.28Z" fill="#4C181B"/>
<path d="M196.994 129.772C196.989 130.567 196.98 131.006 196.958 131.774C194.745 131.271 192.498 130.67 189.733 130.707C189.347 130.693 189.338 130.369 189.317 130.208C190.872 127.095 192.803 125.034 196.689 127.603C196.967 128.467 196.978 128.941 196.994 129.772Z" fill="#491E1E"/>
<path d="M216.279 192.596C208.788 195.516 205.73 194.198 205.088 187.554C208.936 188.49 212.695 189.966 216.279 192.596Z" fill="#80181A"/>
<path d="M201.031 193.268C205 195.079 204.851 197.173 200.569 199.258C200.477 197.465 200.722 195.568 201.031 193.268Z" fill="#491E1E"/>
<path d="M110.294 199.932C105.616 199.632 101.412 198.165 96.5898 198.437C92.3453 196.399 87.952 196.703 83.9047 195.572C82.3076 195.125 79.5517 195.84 79.9036 192.348C88.4857 186.268 98.4985 185.499 108.51 183.592C110.877 186.151 112.877 188.657 116.549 189.498C116.228 192.185 115.664 194.646 115.131 197.516C113.654 198.564 112.144 199.203 110.294 199.932Z" fill="#CB494D"/>
<path d="M116.895 189.429C113.369 190.631 109.946 191.539 105.78 192.643C106.978 189.938 107.901 187.851 108.859 185.425C108.682 184.228 108.484 183.37 108.647 182.148C108.279 179.406 106.108 179.63 104.519 179.036C103.029 178.477 101.293 178.479 99.8569 176.72C101.917 175.321 104.071 174.446 106.811 173.952C106.639 177.767 110.201 177.376 112.066 178.353C118.932 181.948 119 181.82 116.895 189.429Z" fill="#821E1F"/>
<path d="M122.397 197.841C121.404 197.42 120.815 196.947 120.03 196.263C125.704 192.904 131.593 189.803 138.441 188.068C138.517 190.056 138.223 192.015 137.85 194.326C133.057 197.042 127.765 196.629 122.397 197.841Z" fill="#9F1822"/>
<path d="M108.26 181.841C110.053 182.518 110.6 183.412 109.102 184.903C99.5991 187.669 90.3418 190.397 80.4033 192.043C82.6573 187 87.5385 183.801 90.9268 178.877C96.9476 178.318 101.942 182.435 108.26 181.841Z" fill="#841F2C"/>
<path d="M123.023 124.619C121.739 120.381 117.085 117.97 115 112.869C122.647 116.825 128.907 120.137 135.272 123.313C137.24 124.295 139.407 126.456 141.771 124.876C143.924 123.437 142.317 121.134 141.735 119.245C140.868 116.429 139.778 113.656 138.992 110.827C138.571 109.314 136.934 107.212 138.896 106.292C141.324 105.154 142.619 107.637 144.212 108.741C146.242 110.148 148.09 111.728 150.408 113.388C152.036 113.589 153.27 114.14 153.22 115.021C152.962 119.545 156.953 121.562 161 124.045C160.672 126.215 158.799 126.649 156.761 126.767C151.49 127.073 149.134 129.696 148.277 134C139.954 131.229 131.668 128.048 123.023 124.619Z" fill="#80181A"/>
<path d="M189.921 121.236C194.484 116.746 198.942 112.519 203.696 108.147C202.82 113.413 200.829 118.525 198.153 123.752C195.501 126.049 192.898 127.294 189.362 125.333C188.411 123.633 189.383 122.629 189.921 121.236Z" fill="#80181A"/>
<path d="M188.951 125.424C191.708 124.685 194.422 124.369 197.545 124.05C197.712 125.152 197.469 126.257 197.091 127.677C194.416 127.821 192.108 128.563 189.609 129.916C189.167 128.647 189.037 127.246 188.951 125.424Z" fill="#5B0F0F"/>
<path d="M211.094 127.788C208.54 130.002 205.795 131.402 202.426 132.39C202.331 125.654 207.818 120.333 216.295 119.077C215.219 122.446 211.268 123.848 211.094 127.788Z" fill="#80181A"/>
<path d="M136.496 105.503C136.477 105.509 136.515 105.497 136.496 105.503V105.503Z" fill="#80181A"/>
<path d="M130.083 141.721C130.083 134.279 136.116 128.246 143.558 128.246H195.212C202.654 128.246 208.687 134.279 208.687 141.721V193.375C208.687 200.817 202.654 206.85 195.212 206.85H143.558C136.116 206.85 130.083 200.817 130.083 193.375V141.721Z" fill="#B8323D"/>
<path d="M125.947 175.528C120.684 170.266 120.684 161.734 125.947 156.472L162.472 119.947C167.734 114.684 176.266 114.684 181.528 119.947L218.053 156.472C223.316 161.734 223.316 170.266 218.053 175.528L181.528 212.053C176.266 217.316 167.734 217.316 162.472 212.053L125.947 175.528Z" fill="#B8323D"/>
<path d="M134.275 144.149C134.275 137.451 139.705 132.021 146.402 132.021H192.891C199.589 132.021 205.019 137.451 205.019 144.149V190.638C205.019 197.336 199.589 202.765 192.891 202.765H146.402C139.705 202.765 134.275 197.336 134.275 190.638V144.149Z" fill="#A81F25"/>
<path d="M130.552 174.575C125.816 169.839 125.816 162.161 130.552 157.425L163.425 124.552C168.161 119.816 175.839 119.816 180.575 124.552L213.448 157.425C218.184 162.161 218.184 169.839 213.448 174.575L180.575 207.448C175.839 212.184 168.161 212.184 163.425 207.448L130.552 174.575Z" fill="#A81F25"/>
<path d="M138.467 146.577C138.467 140.623 143.293 135.797 149.247 135.797H190.57C196.524 135.797 201.35 140.623 201.35 146.577V187.9C201.35 193.854 196.524 198.68 190.57 198.68H149.247C143.293 198.68 138.467 193.854 138.467 187.9V146.577Z" fill="#7F1D1E"/>
<path d="M135.157 173.623C130.948 169.413 130.948 162.587 135.157 158.377L164.377 129.157C168.587 124.948 175.413 124.948 179.623 129.157L208.843 158.377C213.052 162.587 213.052 169.413 208.843 173.623L179.623 202.843C175.413 207.052 168.587 207.052 164.377 202.843L135.157 173.623Z" fill="#7F1D1E"/>
<path d="M142.658 149.005C142.658 143.795 146.881 139.572 152.091 139.572H188.249C193.458 139.572 197.681 143.795 197.681 149.005V185.163C197.681 190.372 193.458 194.595 188.249 194.595H152.091C146.881 194.595 142.658 190.372 142.658 185.163V149.005Z" fill="#6B0C0F"/>
<path d="M139.763 172.67C136.079 168.986 136.079 163.014 139.763 159.33L165.33 133.763C169.014 130.079 174.986 130.079 178.67 133.763L204.237 159.33C207.921 163.014 207.921 168.986 204.237 172.67L178.67 198.237C174.986 201.921 169.014 201.921 165.33 198.237L139.763 172.67Z" fill="#6B0C0F"/>
<path d="M146.85 151.433C146.85 146.967 150.47 143.348 154.935 143.348H185.927C190.393 143.348 194.012 146.967 194.012 151.433V182.425C194.012 186.89 190.393 190.51 185.927 190.51H154.935C150.47 190.51 146.85 186.89 146.85 182.425V151.433Z" fill="#7B1719"/>
<path d="M144.368 171.717C141.211 168.56 141.211 163.44 144.368 160.283L166.283 138.368C169.44 135.211 174.56 135.211 177.717 138.368L199.632 160.283C202.789 163.44 202.789 168.56 199.632 171.717L177.717 193.632C174.56 196.789 169.44 196.789 166.283 193.632L144.368 171.717Z" fill="#7B1719"/>
<path d="M151.042 153.861C151.042 150.14 154.058 147.123 157.779 147.123H183.606C187.327 147.123 190.344 150.14 190.344 153.861V179.688C190.344 183.409 187.327 186.425 183.606 186.425H157.779C154.058 186.425 151.042 183.409 151.042 179.688V153.861Z" fill="#2D0609"/>
<path d="M148.973 170.764C146.342 168.133 146.342 163.867 148.973 161.236L167.236 142.973C169.867 140.342 174.133 140.342 176.764 142.973L195.027 161.236C197.658 163.867 197.658 168.133 195.027 170.764L176.764 189.027C174.133 191.658 169.867 191.658 167.236 189.027L148.973 170.764Z" fill="#2D0609"/>
<path d="M159.425 158.716C159.425 156.484 161.235 154.674 163.467 154.674H178.964C181.196 154.674 183.006 156.484 183.006 158.716V174.213C183.006 176.445 181.196 178.255 178.964 178.255H163.467C161.235 178.255 159.425 176.445 159.425 174.213V158.716Z" fill="#6B0C0F"/>
<path d="M158.184 168.858C156.605 167.28 156.605 164.72 158.184 163.142L169.142 152.184C170.72 150.605 173.28 150.605 174.858 152.184L185.816 163.142C187.395 164.72 187.395 167.28 185.816 168.858L174.858 179.816C173.28 181.395 170.72 181.395 169.142 179.816L158.184 168.858Z" fill="#6B0C0F"/>
</g>
<defs>
<clipPath id="clip0_755_2054">
<rect width="343" height="343" fill="white"/>
</clipPath>
</defs>
</svg>
