<svg width="195" height="26" viewBox="0 0 195 26" fill="none" xmlns="http://www.w3.org/2000/svg">
<g clip-path="url(#clip0_142_8962)">
<path d="M7.827 8.6C8.883 8.6 9.699 8.852 10.275 9.356C10.859 9.852 11.151 10.552 11.151 11.456C11.151 12.4 10.859 13.136 10.275 13.664C9.699 14.184 8.883 14.444 7.827 14.444H5.271L5.895 13.82V17H4.479V8.6H7.827ZM7.767 13.232C8.415 13.232 8.915 13.092 9.267 12.812C9.619 12.524 9.795 12.084 9.795 11.492C9.795 10.924 9.619 10.504 9.267 10.232C8.915 9.952 8.415 9.812 7.767 9.812H5.271L5.895 9.188V13.856L5.271 13.232H7.767ZM15.2052 10.58C15.8612 10.58 16.4372 10.716 16.9332 10.988C17.4372 11.26 17.8292 11.64 18.1092 12.128C18.3892 12.608 18.5292 13.168 18.5292 13.808C18.5292 14.448 18.3892 15.012 18.1092 15.5C17.8292 15.988 17.4372 16.368 16.9332 16.64C16.4372 16.912 15.8612 17.048 15.2052 17.048C14.5492 17.048 13.9692 16.912 13.4652 16.64C12.9612 16.368 12.5692 15.988 12.2892 15.5C12.0092 15.012 11.8692 14.448 11.8692 13.808C11.8692 13.168 12.0092 12.608 12.2892 12.128C12.5692 11.64 12.9612 11.26 13.4652 10.988C13.9692 10.716 14.5492 10.58 15.2052 10.58ZM15.2052 11.696C14.8212 11.696 14.4812 11.788 14.1852 11.972C13.8892 12.148 13.6572 12.396 13.4892 12.716C13.3292 13.036 13.2492 13.404 13.2492 13.82C13.2492 14.244 13.3292 14.616 13.4892 14.936C13.6572 15.256 13.8892 15.508 14.1852 15.692C14.4812 15.868 14.8212 15.956 15.2052 15.956C15.5892 15.956 15.9252 15.868 16.2132 15.692C16.5092 15.508 16.7372 15.256 16.8972 14.936C17.0652 14.616 17.1492 14.244 17.1492 13.82C17.1492 13.404 17.0652 13.036 16.8972 12.716C16.7372 12.396 16.5092 12.148 16.2132 11.972C15.9252 11.788 15.5892 11.696 15.2052 11.696ZM18.7268 10.628H20.1428L21.7988 15.728L23.4068 10.628H24.8348L26.4548 15.728L28.0868 10.628H29.4908L27.1628 17H25.7348L24.1148 12.176L22.4948 17H21.0788L18.7268 10.628ZM34.6274 13.352C34.6114 12.992 34.5274 12.688 34.3754 12.44C34.2314 12.184 34.0274 11.988 33.7634 11.852C33.4994 11.708 33.1954 11.636 32.8514 11.636C32.4674 11.636 32.1314 11.724 31.8434 11.9C31.5634 12.076 31.3434 12.324 31.1834 12.644C31.0234 12.956 30.9434 13.324 30.9434 13.748C30.9434 14.204 31.0274 14.6 31.1954 14.936C31.3714 15.272 31.6114 15.532 31.9154 15.716C32.2274 15.9 32.5834 15.992 32.9834 15.992C33.6954 15.992 34.2954 15.74 34.7834 15.236L35.5154 15.968C35.2034 16.312 34.8234 16.58 34.3754 16.772C33.9274 16.956 33.4274 17.048 32.8754 17.048C32.2194 17.048 31.6474 16.912 31.1594 16.64C30.6714 16.368 30.2914 15.992 30.0194 15.512C29.7474 15.024 29.6114 14.46 29.6114 13.82C29.6114 13.18 29.7474 12.62 30.0194 12.14C30.2914 11.652 30.6714 11.272 31.1594 11C31.6474 10.728 32.2074 10.588 32.8394 10.58C33.5914 10.58 34.1954 10.736 34.6514 11.048C35.1074 11.352 35.4314 11.784 35.6234 12.344C35.8154 12.904 35.8834 13.568 35.8274 14.336H30.7274V13.352H34.6274ZM40.8541 11.828C40.3981 11.804 40.0021 11.884 39.6661 12.068C39.3381 12.244 39.0821 12.492 38.8981 12.812C38.7221 13.132 38.6341 13.5 38.6341 13.916L38.2501 13.868C38.2501 13.156 38.3541 12.556 38.5621 12.068C38.7701 11.58 39.0701 11.212 39.4621 10.964C39.8541 10.708 40.3181 10.58 40.8541 10.58V11.828ZM37.2661 10.628H38.6461V17H37.2661V10.628ZM46.4048 13.352C46.3888 12.992 46.3048 12.688 46.1528 12.44C46.0088 12.184 45.8048 11.988 45.5408 11.852C45.2768 11.708 44.9728 11.636 44.6288 11.636C44.2448 11.636 43.9088 11.724 43.6208 11.9C43.3408 12.076 43.1208 12.324 42.9608 12.644C42.8008 12.956 42.7208 13.324 42.7208 13.748C42.7208 14.204 42.8048 14.6 42.9728 14.936C43.1488 15.272 43.3888 15.532 43.6928 15.716C44.0048 15.9 44.3608 15.992 44.7608 15.992C45.4728 15.992 46.0728 15.74 46.5608 15.236L47.2928 15.968C46.9808 16.312 46.6008 16.58 46.1528 16.772C45.7048 16.956 45.2048 17.048 44.6528 17.048C43.9968 17.048 43.4248 16.912 42.9368 16.64C42.4488 16.368 42.0688 15.992 41.7968 15.512C41.5248 15.024 41.3888 14.46 41.3888 13.82C41.3888 13.18 41.5248 12.62 41.7968 12.14C42.0688 11.652 42.4488 11.272 42.9368 11C43.4248 10.728 43.9848 10.588 44.6168 10.58C45.3688 10.58 45.9728 10.736 46.4288 11.048C46.8848 11.352 47.2088 11.784 47.4008 12.344C47.5928 12.904 47.6608 13.568 47.6048 14.336H42.5048V13.352H46.4048ZM51.4794 10.568C52.0714 10.568 52.5714 10.7 52.9794 10.964C53.3954 11.22 53.7114 11.592 53.9274 12.08C54.1514 12.56 54.2594 13.136 54.2514 13.808C54.2594 14.48 54.1554 15.06 53.9394 15.548C53.7234 16.036 53.4074 16.412 52.9914 16.676C52.5834 16.932 52.0874 17.06 51.5034 17.06C50.8954 17.06 50.3594 16.924 49.8954 16.652C49.4394 16.372 49.0834 15.988 48.8274 15.5C48.5714 15.004 48.4434 14.436 48.4434 13.796C48.4434 13.156 48.5714 12.596 48.8274 12.116C49.0834 11.628 49.4394 11.248 49.8954 10.976C50.3514 10.704 50.8794 10.568 51.4794 10.568ZM51.7914 11.684C51.4074 11.684 51.0674 11.776 50.7714 11.96C50.4754 12.144 50.2434 12.4 50.0754 12.728C49.9154 13.048 49.8314 13.416 49.8234 13.832C49.8314 14.248 49.9154 14.616 50.0754 14.936C50.2434 15.256 50.4754 15.508 50.7714 15.692C51.0674 15.876 51.4074 15.968 51.7914 15.968C52.1754 15.968 52.5154 15.876 52.8114 15.692C53.1074 15.508 53.3354 15.256 53.4954 14.936C53.6634 14.616 53.7474 14.248 53.7474 13.832C53.7474 13.408 53.6634 13.036 53.4954 12.716C53.3354 12.396 53.1074 12.144 52.8114 11.96C52.5154 11.776 52.1754 11.684 51.7914 11.684ZM53.7474 8.096H55.1274V17H53.7474V8.096ZM64.1295 10.58C64.7375 10.58 65.2695 10.716 65.7255 10.988C66.1815 11.26 66.5375 11.64 66.7935 12.128C67.0495 12.616 67.1775 13.184 67.1775 13.832C67.1775 14.464 67.0495 15.024 66.7935 15.512C66.5455 15.992 66.1935 16.368 65.7375 16.64C65.2895 16.912 64.7615 17.048 64.1535 17.048C63.5695 17.048 63.0695 16.92 62.6535 16.664C62.2455 16.408 61.9335 16.04 61.7175 15.56C61.5015 15.072 61.3935 14.496 61.3935 13.832C61.3935 13.144 61.5015 12.56 61.7175 12.08C61.9335 11.592 62.2455 11.22 62.6535 10.964C63.0695 10.708 63.5615 10.58 64.1295 10.58ZM63.8415 11.672C63.4655 11.672 63.1295 11.764 62.8335 11.948C62.5375 12.132 62.3055 12.384 62.1375 12.704C61.9775 13.016 61.8975 13.38 61.8975 13.796C61.8975 14.212 61.9775 14.584 62.1375 14.912C62.3055 15.232 62.5375 15.484 62.8335 15.668C63.1295 15.844 63.4655 15.932 63.8415 15.932C64.2255 15.932 64.5615 15.84 64.8495 15.656C65.1455 15.472 65.3735 15.22 65.5335 14.9C65.7015 14.58 65.7855 14.212 65.7855 13.796C65.7855 13.388 65.7015 13.024 65.5335 12.704C65.3735 12.384 65.1455 12.132 64.8495 11.948C64.5615 11.764 64.2255 11.672 63.8415 11.672ZM60.5175 8.096H61.8975V17H60.5175V8.096ZM70.8874 17.9C70.6874 18.388 70.4114 18.756 70.0594 19.004C69.7074 19.26 69.2914 19.388 68.8114 19.388C68.5234 19.388 68.2594 19.344 68.0194 19.256C67.7874 19.168 67.5594 19.036 67.3354 18.86L67.9234 17.84C68.2114 18.048 68.4874 18.152 68.7514 18.152C68.9594 18.152 69.1474 18.092 69.3154 17.972C69.4834 17.852 69.6194 17.668 69.7234 17.42L69.9394 16.916L67.2994 10.628H68.7274L70.6354 15.548L72.4114 10.628H73.7914L70.8874 17.9Z" fill="#9A4550"/>
<path d="M76.9447 8.588H79.3088L81.4088 14.708L83.5208 8.588H85.7768L82.4768 17H80.2088L76.9447 8.588ZM86.5738 8.588H88.7698V17H86.5738V8.588ZM89.6738 8.588H96.8858V10.364H94.3658V17H92.1698V10.364H89.6738V8.588ZM101.557 8.588C102.677 8.588 103.541 8.848 104.149 9.368C104.757 9.88 105.061 10.604 105.061 11.54C105.061 12.524 104.757 13.292 104.149 13.844C103.541 14.388 102.677 14.66 101.557 14.66H99.9729V17H97.7769V8.588H101.557ZM101.557 12.932C102.013 12.932 102.361 12.82 102.601 12.596C102.849 12.372 102.973 12.04 102.973 11.6C102.973 11.176 102.849 10.856 102.601 10.64C102.361 10.424 102.013 10.316 101.557 10.316H99.9729V12.932H101.557ZM101.173 13.856H103.309L105.313 17H102.829L101.173 13.856ZM108.513 13.532C108.513 14.076 108.669 14.508 108.981 14.828C109.301 15.148 109.697 15.308 110.169 15.308C110.641 15.308 111.021 15.152 111.309 14.84C111.605 14.52 111.753 14.084 111.753 13.532V8.588H113.949V13.532C113.949 14.268 113.793 14.908 113.481 15.452C113.177 15.996 112.741 16.416 112.173 16.712C111.605 17.008 110.933 17.156 110.157 17.156C109.381 17.156 108.705 17.008 108.129 16.712C107.553 16.416 107.105 15.996 106.785 15.452C106.473 14.908 106.317 14.268 106.317 13.532V8.588H108.513V13.532ZM114.609 8.588H116.973L119.073 14.708L121.185 8.588H123.441L120.141 17H117.873L114.609 8.588ZM124.238 8.588H126.434V17H124.238V8.588ZM130.122 13.532C130.122 14.076 130.278 14.508 130.59 14.828C130.91 15.148 131.306 15.308 131.778 15.308C132.25 15.308 132.63 15.152 132.918 14.84C133.214 14.52 133.362 14.084 133.362 13.532V8.588H135.558V13.532C135.558 14.268 135.402 14.908 135.09 15.452C134.786 15.996 134.35 16.416 133.782 16.712C133.214 17.008 132.542 17.156 131.766 17.156C130.99 17.156 130.314 17.008 129.738 16.712C129.162 16.416 128.714 15.996 128.394 15.452C128.082 14.908 127.926 14.268 127.926 13.532V8.588H130.122V13.532ZM142.854 11.096C142.558 10.912 142.242 10.756 141.906 10.628C141.578 10.492 141.258 10.388 140.946 10.316C140.642 10.236 140.374 10.196 140.142 10.196C139.878 10.196 139.666 10.248 139.506 10.352C139.346 10.448 139.266 10.6 139.266 10.808C139.266 11.016 139.342 11.188 139.494 11.324C139.654 11.452 139.866 11.56 140.13 11.648C140.394 11.736 140.686 11.824 141.006 11.912C141.326 12 141.642 12.104 141.954 12.224C142.266 12.344 142.554 12.5 142.818 12.692C143.082 12.876 143.294 13.116 143.454 13.412C143.614 13.708 143.694 14.076 143.694 14.516C143.694 15.084 143.542 15.564 143.238 15.956C142.934 16.34 142.526 16.632 142.014 16.832C141.502 17.024 140.934 17.12 140.31 17.12C139.838 17.12 139.366 17.068 138.894 16.964C138.43 16.852 137.986 16.696 137.562 16.496C137.146 16.288 136.77 16.044 136.434 15.764L137.286 14.072C137.574 14.328 137.898 14.552 138.258 14.744C138.618 14.936 138.982 15.088 139.35 15.2C139.718 15.304 140.046 15.356 140.334 15.356C140.662 15.356 140.918 15.296 141.102 15.176C141.294 15.048 141.39 14.864 141.39 14.624C141.39 14.416 141.31 14.248 141.15 14.12C140.99 13.984 140.778 13.872 140.514 13.784C140.25 13.696 139.958 13.612 139.638 13.532C139.326 13.444 139.01 13.344 138.69 13.232C138.378 13.112 138.09 12.964 137.826 12.788C137.562 12.604 137.35 12.368 137.19 12.08C137.038 11.792 136.962 11.432 136.962 11C136.962 10.48 137.098 10.028 137.37 9.644C137.65 9.252 138.042 8.952 138.546 8.744C139.058 8.528 139.65 8.42 140.322 8.42C140.938 8.42 141.542 8.508 142.134 8.684C142.726 8.86 143.242 9.088 143.682 9.368L142.854 11.096ZM154.362 11.228C154.066 10.932 153.718 10.704 153.318 10.544C152.926 10.376 152.534 10.292 152.142 10.292C151.798 10.292 151.482 10.356 151.194 10.484C150.906 10.612 150.654 10.788 150.438 11.012C150.222 11.236 150.054 11.5 149.934 11.804C149.822 12.108 149.766 12.436 149.766 12.788C149.766 13.148 149.826 13.48 149.946 13.784C150.066 14.088 150.234 14.356 150.45 14.588C150.666 14.812 150.918 14.988 151.206 15.116C151.502 15.244 151.822 15.308 152.166 15.308C152.47 15.308 152.814 15.236 153.198 15.092C153.59 14.94 153.946 14.744 154.266 14.504L155.514 16.052C155.218 16.26 154.87 16.448 154.47 16.616C154.078 16.784 153.666 16.916 153.234 17.012C152.81 17.108 152.402 17.156 152.01 17.156C151.37 17.156 150.774 17.048 150.222 16.832C149.678 16.608 149.202 16.3 148.794 15.908C148.386 15.516 148.07 15.052 147.846 14.516C147.622 13.98 147.51 13.404 147.51 12.788C147.51 12.172 147.626 11.6 147.858 11.072C148.09 10.544 148.414 10.084 148.83 9.692C149.254 9.3 149.746 8.996 150.306 8.78C150.874 8.564 151.49 8.456 152.154 8.456C152.57 8.456 152.986 8.508 153.402 8.612C153.826 8.716 154.226 8.86 154.602 9.044C154.986 9.228 155.322 9.452 155.61 9.716L154.362 11.228ZM153.618 12.716H155.514V16.052H153.618V12.716ZM160.748 8.588C161.868 8.588 162.732 8.848 163.34 9.368C163.948 9.88 164.252 10.604 164.252 11.54C164.252 12.524 163.948 13.292 163.34 13.844C162.732 14.388 161.868 14.66 160.748 14.66H159.164V17H156.968V8.588H160.748ZM160.748 12.932C161.204 12.932 161.552 12.82 161.792 12.596C162.04 12.372 162.164 12.04 162.164 11.6C162.164 11.176 162.04 10.856 161.792 10.64C161.552 10.424 161.204 10.316 160.748 10.316H159.164V12.932H160.748ZM160.364 13.856H162.5L164.504 17H162.02L160.364 13.856ZM169.66 8.456C170.316 8.456 170.916 8.564 171.46 8.78C172.012 8.996 172.492 9.3 172.9 9.692C173.316 10.084 173.636 10.544 173.86 11.072C174.092 11.592 174.208 12.16 174.208 12.776C174.208 13.4 174.092 13.98 173.86 14.516C173.636 15.044 173.316 15.508 172.9 15.908C172.492 16.3 172.012 16.608 171.46 16.832C170.916 17.048 170.316 17.156 169.66 17.156C169.012 17.156 168.412 17.048 167.86 16.832C167.308 16.608 166.824 16.3 166.408 15.908C166 15.508 165.68 15.044 165.448 14.516C165.224 13.98 165.112 13.4 165.112 12.776C165.112 12.16 165.224 11.588 165.448 11.06C165.68 10.532 166 10.076 166.408 9.692C166.824 9.3 167.308 8.996 167.86 8.78C168.412 8.564 169.012 8.456 169.66 8.456ZM169.684 10.292C169.372 10.292 169.072 10.356 168.784 10.484C168.504 10.604 168.256 10.78 168.04 11.012C167.832 11.236 167.668 11.5 167.548 11.804C167.428 12.1 167.368 12.428 167.368 12.788C167.368 13.14 167.428 13.472 167.548 13.784C167.668 14.088 167.836 14.356 168.052 14.588C168.268 14.812 168.516 14.988 168.796 15.116C169.076 15.244 169.372 15.308 169.684 15.308C169.996 15.308 170.288 15.244 170.56 15.116C170.84 14.988 171.084 14.812 171.292 14.588C171.5 14.356 171.66 14.088 171.772 13.784C171.892 13.472 171.952 13.14 171.952 12.788C171.952 12.428 171.892 12.1 171.772 11.804C171.66 11.5 171.5 11.236 171.292 11.012C171.084 10.78 170.84 10.604 170.56 10.484C170.288 10.356 169.996 10.292 169.684 10.292ZM177.348 13.532C177.348 14.076 177.504 14.508 177.816 14.828C178.136 15.148 178.532 15.308 179.004 15.308C179.476 15.308 179.856 15.152 180.144 14.84C180.44 14.52 180.588 14.084 180.588 13.532V8.588H182.784V13.532C182.784 14.268 182.628 14.908 182.316 15.452C182.012 15.996 181.576 16.416 181.008 16.712C180.44 17.008 179.768 17.156 178.992 17.156C178.216 17.156 177.54 17.008 176.964 16.712C176.388 16.416 175.94 15.996 175.62 15.452C175.308 14.908 175.152 14.268 175.152 13.532V8.588H177.348V13.532ZM187.981 8.588C189.053 8.588 189.885 8.848 190.477 9.368C191.069 9.88 191.365 10.604 191.365 11.54C191.365 12.524 191.069 13.292 190.477 13.844C189.885 14.388 189.053 14.66 187.981 14.66H185.521L186.481 13.7V17H184.285V8.588H187.981ZM187.873 12.932C188.321 12.932 188.665 12.82 188.905 12.596C189.153 12.372 189.277 12.04 189.277 11.6C189.277 11.176 189.153 10.856 188.905 10.64C188.665 10.424 188.321 10.316 187.873 10.316H185.521L186.481 9.356V13.892L185.521 12.932H187.873Z" fill="#FFEFE3"/>
</g>
<defs>
<clipPath id="clip0_142_8962">
<rect width="195" height="26" fill="white"/>
</clipPath>
</defs>
</svg>
